<?xml version="1.0" encoding="UTF-8"?>
<svg width="24px" height="19px" viewBox="0 0 24 19" version="1.1" xmlns="http://www.w3.org/2000/svg" xmlns:xlink="http://www.w3.org/1999/xlink">
    <!-- Generator: Sketch 55 (78076) - https://sketchapp.com -->
    <title>!!!</title>
    <desc>Created with Sketch.</desc>
    <g id="Web-1280" stroke="none" stroke-width="1" fill="none" fill-rule="evenodd">
        <g id="Social-vacation" transform="translate(-990.000000, -2064.000000)" fill="#1B1E2D" fill-rule="nonzero">
            <g id="Group-11-Copy-5" transform="translate(827.000000, 1955.000000)">
                <path d="M165.66062,127.52 C164.225972,127.52 163.104338,126.580958 163.104338,125.14631 C163.104338,123.685577 164.225972,122.746535 165.66062,122.746535 C167.095268,122.746535 168.216901,123.685577 168.216901,125.14631 C168.216901,126.580958 167.095268,127.52 165.66062,127.52 Z M163.391268,122.068338 L163,109 L168.216901,109 L167.929972,122.068338 L163.391268,122.068338 Z M174.868451,127.52 C173.433803,127.52 172.312169,126.580958 172.312169,125.14631 C172.312169,123.685577 173.433803,122.746535 174.868451,122.746535 C176.303099,122.746535 177.424732,123.685577 177.424732,125.14631 C177.424732,126.580958 176.303099,127.52 174.868451,127.52 Z M172.599099,122.068338 L172.207831,109 L177.424732,109 L177.137803,122.068338 L172.599099,122.068338 Z M184.076282,127.52 C182.641634,127.52 181.52,126.580958 181.52,125.14631 C181.52,123.685577 182.641634,122.746535 184.076282,122.746535 C185.51093,122.746535 186.632563,123.685577 186.632563,125.14631 C186.632563,126.580958 185.51093,127.52 184.076282,127.52 Z M181.80693,122.068338 L181.415662,109 L186.632563,109 L186.345634,122.068338 L181.80693,122.068338 Z" id="!!!"></path>
            </g>
        </g>
    </g>
</svg>