<?xml version="1.0" encoding="UTF-8"?>
<svg width="22px" height="26px" viewBox="0 0 22 26" version="1.1" xmlns="http://www.w3.org/2000/svg" xmlns:xlink="http://www.w3.org/1999/xlink">
    <!-- Generator: Sketch 55 (78076) - https://sketchapp.com -->
    <title>Shape 5</title>
    <desc>Created with Sketch.</desc>
    <g id="Web-1280" stroke="none" stroke-width="1" fill="none" fill-rule="evenodd">
        <g id="main" transform="translate(-628.000000, -1002.000000)" fill="#1A1A1A" fill-rule="nonzero">
            <g id="Group-18" transform="translate(464.000000, 947.000000)">
                <g id="Shape-5" transform="translate(164.000000, 55.000000)">
                    <path d="M4.60728792,-5.68434189e-14 C3.50211472,-5.68434189e-14 2.58412605,0.873211806 2.48934437,1.97482639 L1.56898147,2.22309028 L1.55789276,2.22309028 C0.439508208,2.53220139 -0.228529244,3.72901389 0.0720056591,4.86371528 L2.47825566,13.9817708 L2.47825566,23.8333333 C2.47825566,25.0211722 3.44007934,26 4.60728792,26 L17.3814815,26 C18.4902932,26 19.4097967,25.1206006 19.499425,24.0138889 L20.4197879,23.765625 L20.4308766,23.765625 C21.5492406,23.4564778 22.2172951,22.2597194 21.9167637,21.125 L19.5105137,12.0069444 L19.5105137,5.77777778 C19.5090099,5.58681896 19.4332588,5.40423704 19.2998282,5.26996528 L14.3320863,0.214409722 C14.2001468,0.0786205307 14.0207363,0.00153038776 13.8330944,-5.62019567e-14 L4.60728792,-5.68434189e-14 Z M4.60728792,1.44444444 L13.1234169,1.44444444 L13.1234169,5.77777778 C13.1234561,6.17663358 13.4411666,6.49996012 13.8330944,6.5 L18.0911589,6.5 L18.0911589,12.1423611 L18.0911589,23.8333333 C18.0911589,24.2459389 17.7869173,24.5555556 17.3814815,24.5555556 L4.60728792,24.5555556 C4.20185205,24.5555556 3.8976105,24.2459389 3.8976105,23.8333333 L3.8976105,2.16666667 C3.8976105,1.75406472 4.20185205,1.44444444 4.60728792,1.44444444 Z M14.5427718,2.46006944 L17.093175,5.05555556 L14.5427718,5.05555556 L14.5427718,2.46006944 Z M2.47825566,3.47569444 L2.47825566,8.4296875 L1.43591695,4.49131944 C1.33225721,4.09994 1.53637747,3.727425 1.92382018,3.62239583 C1.92751636,3.62242522 1.9312127,3.62242522 1.93490888,3.62239583 L2.47825566,3.47569444 Z M19.5105137,17.5703125 L20.5528524,21.4973958 C20.6565154,21.8888042 20.4524125,22.2612722 20.0649492,22.3663194 C20.061253,22.3662901 20.0575567,22.3662901 20.0538605,22.3663194 L19.5105137,22.5130208 L19.5105137,17.5703125 Z" id="Shape"></path>
                </g>
            </g>
        </g>
    </g>
</svg>