<?xml version="1.0" encoding="UTF-8"?>
<svg width="21px" height="21px" viewBox="0 0 21 21" version="1.1" xmlns="http://www.w3.org/2000/svg" xmlns:xlink="http://www.w3.org/1999/xlink">
    <!-- Generator: Sketch 55 (78076) - https://sketchapp.com -->
    <title>Shape 2</title>
    <desc>Created with Sketch.</desc>
    <g id="Web-1280" stroke="none" stroke-width="1" fill="none" fill-rule="evenodd">
        <g id="Social-vacation" transform="translate(-987.000000, -447.000000)" fill="#1A1A1A" fill-rule="nonzero">
            <g id="Group-4" transform="translate(825.000000, 427.000000)">
                <g id="Shape-2" transform="translate(162.000000, 20.000000)">
                    <path d="M13.653,1.707 L11.946,1.707 L11.946,3.414 L13.653,3.414 L13.653,1.707 Z M11.093,11.093 L9.386,11.093 C8.915,11.093 8.533,11.475 8.533,11.946 C8.533,12.417 8.915,12.799 9.386,12.799 L11.093,12.799 C11.564,12.799 11.946,12.417 11.946,11.946 C11.947,11.475 11.565,11.093 11.093,11.093 Z M10.24,5.12 C10.711,5.12 11.093,4.738 11.093,4.267 L11.093,0.853 C11.093,0.382 10.711,-1.17239551e-13 10.24,-1.17239551e-13 C9.769,-1.17239551e-13 9.387,0.382 9.387,0.853 L9.387,4.267 C9.387,4.738 9.769,5.12 10.24,5.12 Z M16.213,14.507 L14.506,14.507 C14.035,14.507 13.653,14.889 13.653,15.36 C13.653,15.831 14.035,16.213 14.506,16.213 L16.213,16.213 C16.684,16.213 17.066,15.831 17.066,15.36 C17.067,14.889 16.685,14.507 16.213,14.507 Z M16.213,11.093 L14.506,11.093 C14.035,11.093 13.653,11.475 13.653,11.946 C13.653,12.417 14.035,12.799 14.506,12.799 L16.213,12.799 C16.684,12.799 17.066,12.417 17.066,11.946 C17.067,11.475 16.685,11.093 16.213,11.093 Z M15.36,5.12 C15.831,5.12 16.213,4.738 16.213,4.267 L16.213,0.853 C16.213,0.382 15.831,-1.17239551e-13 15.36,-1.17239551e-13 C14.889,-1.17239551e-13 14.507,0.382 14.507,0.853 L14.507,4.267 C14.507,4.738 14.889,5.12 15.36,5.12 Z M14.507,9.387 L16.214,9.387 C16.685,9.387 17.067,9.005 17.067,8.534 C17.067,8.063 16.685,7.681 16.214,7.681 L14.507,7.681 C14.036,7.681 13.654,8.063 13.654,8.534 C13.653,9.005 14.036,9.387 14.507,9.387 Z M9.387,9.387 L11.094,9.387 C11.565,9.387 11.947,9.005 11.947,8.534 C11.947,8.063 11.565,7.681 11.094,7.681 L9.387,7.681 C8.916,7.681 8.534,8.063 8.534,8.534 C8.533,9.005 8.915,9.387 9.387,9.387 Z M5.973,14.507 L4.266,14.507 C3.795,14.507 3.413,14.889 3.413,15.36 C3.413,15.831 3.795,16.213 4.266,16.213 L5.973,16.213 C6.444,16.213 6.826,15.831 6.826,15.36 C6.827,14.889 6.444,14.507 5.973,14.507 Z M18.774,1.707 L17.067,1.707 L17.067,3.414 L18.774,3.414 L18.774,18.774 L1.706,18.774 L1.706,3.413 L3.413,3.413 L3.413,1.707 L1.706,1.707 C0.763,1.707 8.8817842e-15,2.471 8.8817842e-15,3.414 L8.8817842e-15,18.774 C8.8817842e-15,19.717 0.764,20.481 1.706,20.481 L18.773,20.481 C19.716,20.481 20.48,19.717 20.48,18.774 L20.48,3.413 C20.48,2.471 19.716,1.707 18.774,1.707 Z M5.973,11.093 L4.266,11.093 C3.795,11.093 3.413,11.475 3.413,11.946 C3.413,12.417 3.795,12.799 4.266,12.799 L5.973,12.799 C6.444,12.799 6.826,12.417 6.826,11.946 C6.827,11.475 6.444,11.093 5.973,11.093 Z M8.533,1.707 L6.827,1.707 L6.827,3.414 L8.534,3.414 L8.534,1.707 L8.533,1.707 Z M11.093,14.507 L9.386,14.507 C8.915,14.507 8.533,14.889 8.533,15.36 C8.533,15.831 8.915,16.213 9.386,16.213 L11.093,16.213 C11.564,16.213 11.946,15.831 11.946,15.36 C11.947,14.889 11.565,14.507 11.093,14.507 Z M4.266,9.387 L5.973,9.387 C6.444,9.387 6.826,9.005 6.826,8.534 C6.826,8.063 6.444,7.681 5.973,7.681 L4.266,7.681 C3.795,7.681 3.413,8.063 3.413,8.534 C3.413,9.005 3.795,9.387 4.266,9.387 Z M5.12,5.12 C5.591,5.12 5.973,4.738 5.973,4.267 L5.973,0.853 C5.973,0.382 5.591,-1.17239551e-13 5.12,-1.17239551e-13 C4.649,-1.17239551e-13 4.266,0.382 4.266,0.853 L4.266,4.267 C4.266,4.738 4.649,5.12 5.12,5.12 Z" id="Shape"></path>
                </g>
            </g>
        </g>
    </g>
</svg>