<?xml version="1.0" encoding="UTF-8"?>
<svg width="32px" height="16px" viewBox="0 0 32 16" version="1.1" xmlns="http://www.w3.org/2000/svg" xmlns:xlink="http://www.w3.org/1999/xlink">
    <!-- Generator: Sketch 55 (78076) - https://sketchapp.com -->
    <title>Shape 3</title>
    <desc>Created with Sketch.</desc>
    <g id="Web-1280" stroke="none" stroke-width="1" fill="none" fill-rule="evenodd">
        <g id="main" transform="translate(-825.000000, -486.000000)" fill="#1A1A1A" fill-rule="nonzero">
            <g id="Shape-3" transform="translate(825.000000, 486.000000)">
                <path d="M31.7447143,9.6035 C31.7447143,7.56678571 30.1519286,5.87942857 28.1186429,5.76214286 C28.1161429,5.762 28.1137143,5.76185714 28.1112143,5.76178571 L25.9495,5.65964286 C25.2857143,5.62021429 24.6608571,5.30492857 24.2349286,4.79414286 L21.39,1.38321429 C20.6567857,0.504214286 19.5797857,0 18.4351429,0 L10.2687857,0 C9.06378571,0 7.91292857,0.575571429 7.19014286,1.53971429 L5.34928571,3.99521429 C5.03957143,4.40842857 4.61471429,4.70664286 4.12078571,4.85757143 L2.72307143,5.28478571 C1.09428571,5.78264286 -2.84217094e-14,7.26135714 -2.84217094e-14,8.9645 L-2.84217094e-14,12.1095 C-2.84217094e-14,12.9353571 0.671857143,13.6071429 1.49764286,13.6071429 L4.08828571,13.6071429 C4.56364286,14.9972857 5.88214286,16 7.43121429,16 C9.10685714,16 10.5127143,14.827 10.8733571,13.2592143 L20.5253571,13.2592143 C20.886,14.827 22.2918571,16 23.9675,16 C25.5166429,16 26.8350714,14.9972857 27.3104286,13.6071429 L30.2470714,13.6071429 C31.0728571,13.6071429 31.7447143,12.9352857 31.7447143,12.1095 L31.7447143,9.6035 Z M7.43121429,14.5714286 C6.27092857,14.5714286 5.32707143,13.6275 5.32707143,12.4672143 C5.32707143,11.3069286 6.271,10.3630714 7.43121429,10.3630714 C8.59142857,10.3630714 9.53542857,11.307 9.53542857,12.4672143 C9.53542857,13.6274286 8.59142857,14.5714286 7.43121429,14.5714286 Z M23.9675,14.5714286 C22.8072143,14.5714286 21.8633571,13.6275 21.8633571,12.4672143 C21.8633571,11.3069286 22.8072857,10.3630714 23.9675,10.3630714 C25.1277143,10.3630714 26.0716429,11.307 26.0716429,12.4672143 C26.0716429,13.6274286 25.1277857,14.5714286 23.9675,14.5714286 Z M30.3161429,12.1095 C30.3161429,12.1475714 30.2851429,12.1785714 30.2470714,12.1785714 L27.4874286,12.1785714 C27.34,10.3652143 25.8181429,8.93442857 23.9674286,8.93442857 C22.2368571,8.93442857 20.794,10.1855714 20.4932143,11.8305714 L10.9053571,11.8305714 C10.6046429,10.1855714 9.16171429,8.93442857 7.43114286,8.93442857 C5.58042857,8.93442857 4.05864286,10.3652143 3.91114286,12.1785714 L1.49757143,12.1785714 C1.4595,12.1785714 1.4285,12.1475714 1.4285,12.1095 L1.4285,8.9645 C1.4285,7.89371429 2.1165,6.964 3.14057143,6.651 L4.53835714,6.22378571 C5.32392857,5.98364286 5.99964286,5.50935714 6.49228571,4.85214286 L8.33314286,2.39671429 C8.78757143,1.79042857 9.51121429,1.42857143 10.2687857,1.42857143 L18.4351429,1.42857143 C19.1548571,1.42857143 19.832,1.74557143 20.2929286,2.29828571 L23.1377857,5.70921429 C23.8166429,6.52314286 24.8128571,7.02492857 25.871,7.08607143 C25.8735,7.08621429 25.8759286,7.08635714 25.8784286,7.08642857 L28.0398571,7.18857143 C29.3165714,7.26407143 30.3161429,8.32414286 30.3161429,9.6035 L30.3161429,12.1095 Z" id="Shape"></path>
            </g>
        </g>
    </g>
</svg>