<?xml version="1.0" encoding="UTF-8"?>
<svg width="26px" height="21px" viewBox="0 0 26 21" version="1.1" xmlns="http://www.w3.org/2000/svg" xmlns:xlink="http://www.w3.org/1999/xlink">
    <!-- Generator: Sketch 55 (78076) - https://sketchapp.com -->
    <title>Shape</title>
    <desc>Created with Sketch.</desc>
    <g id="Web-1280" stroke="none" stroke-width="1" fill="none" fill-rule="evenodd">
        <g id="Tour-page" transform="translate(-105.000000, -2060.000000)" fill="#1A1A1A" fill-rule="nonzero">
            <path d="M107.983158,2081 C107.490526,2081 106.997895,2080.75486 106.696842,2080.31907 C106.313684,2079.77432 106.341053,2079.06615 106.724211,2078.5214 C107.435789,2077.56809 108.010526,2076.36965 108.366316,2075.55253 C106.176842,2073.83658 105,2071.63035 105,2069.28794 C105,2064.16732 110.829474,2060 118,2060 C125.170526,2060 131,2064.16732 131,2069.28794 C131,2074.40856 125.170526,2078.57588 118,2078.57588 C116.823158,2078.57588 115.646316,2078.46693 114.524211,2078.24903 C113.018947,2079.14786 110.802105,2080.29183 108.421053,2080.94553 C108.284211,2080.97276 108.12,2081 107.983158,2081 Z M118,2061.36187 C111.595789,2061.36187 106.395789,2064.90272 106.395789,2069.28794 C106.395789,2071.33074 107.545263,2073.26459 109.625263,2074.76265 C109.871579,2074.95331 109.981053,2075.28016 109.871579,2075.57977 C109.543158,2076.42412 108.831579,2078.05837 107.873684,2079.36576 C107.818947,2079.42023 107.818947,2079.50195 107.873684,2079.55642 C107.928421,2079.61089 107.983158,2079.63813 108.065263,2079.61089 C110.446316,2078.98444 112.608421,2077.81323 114.031579,2076.94163 C114.195789,2076.85992 114.36,2076.80545 114.551579,2076.85992 C115.673684,2077.10506 116.850526,2077.21401 118.027368,2077.21401 C124.431579,2077.21401 129.631579,2073.67315 129.631579,2069.28794 C129.631579,2064.90272 124.404211,2061.36187 118,2061.36187 Z" id="Shape"></path>
        </g>
    </g>
</svg>