<?xml version="1.0" encoding="UTF-8"?>
<svg width="25px" height="28px" viewBox="0 0 25 28" version="1.1" xmlns="http://www.w3.org/2000/svg" xmlns:xlink="http://www.w3.org/1999/xlink">
    <!-- Generator: Sketch 55 (78076) - https://sketchapp.com -->
    <title>Shape 2</title>
    <desc>Created with Sketch.</desc>
    <g id="Web-1280" stroke="none" stroke-width="1" fill="none" fill-rule="evenodd">
        <g id="Tours" transform="translate(-624.000000, -2779.000000)" fill="#1A1A1A" fill-rule="nonzero" stroke="#1A1A1A">
            <g id="Shape-2" transform="translate(625.000000, 2780.000000)">
                <path d="M2.94141414,25.8686869 L20.2747475,25.8686869 C21.9030303,25.8686869 23.2161616,24.5555556 23.2161616,22.9272727 L23.2161616,5.59393939 C23.2161616,5.51515152 23.189899,5.43636364 23.1111111,5.35757576 L17.8585859,0.105050505 C17.8060606,0.0525252525 17.7010101,0 17.6222222,0 L2.94141414,0 C1.31313131,0 -1.84741111e-13,1.31313131 -1.84741111e-13,2.94141414 L-1.84741111e-13,22.9010101 C-1.8497437e-13,24.5555556 1.31313131,25.8686869 2.94141414,25.8686869 Z M22.5858586,5.72525253 L22.5858586,22.9272727 C22.5858586,24.1878788 21.5616162,25.2383838 20.2747475,25.2383838 L20.0383838,25.2383838 C20.7212121,24.6868687 21.1414141,23.8727273 21.1414141,22.9272727 L21.1414141,5.59393939 C21.1414141,5.51515152 21.1151515,5.43636364 21.0363636,5.35757576 L16.3353535,0.656565657 L17.5171717,0.656565657 L22.5858586,5.72525253 Z M15.4161616,0.656565657 L20.4848485,5.72525253 L20.4848485,22.9272727 C20.4848485,24.1878788 19.4606061,25.2383838 18.1737374,25.2383838 L17.9373737,25.2383838 C18.620202,24.6868687 19.040404,23.8727273 19.040404,22.9272727 L19.040404,5.67272727 L19.040404,5.64646465 C19.0666667,5.54141414 19.0141414,5.43636364 18.9616162,5.35757576 L14.2343434,0.656565657 L15.4161616,0.656565657 Z M13.7616162,1.12929293 L17.9111111,5.27878788 L16.0727273,5.27878788 C14.8121212,5.27878788 13.7616162,4.25454545 13.7616162,2.96767677 L13.7616162,1.12929293 Z M0.63030303,2.96767677 C0.63030303,1.70707071 1.65454545,0.656565657 2.94141414,0.656565657 L13.1313131,0.656565657 L13.1313131,2.96767677 C13.1313131,4.5959596 14.4444444,5.90909091 16.0727273,5.90909091 L18.3838384,5.90909091 L18.3838384,22.9272727 C18.3838384,24.1878788 17.359596,25.2383838 16.0727273,25.2383838 L2.94141414,25.2383838 C1.68080808,25.2383838 0.63030303,24.2141414 0.63030303,22.9272727 L0.63030303,2.96767677 Z" id="Shape"></path>
            </g>
        </g>
    </g>
</svg>