<?xml version="1.0" encoding="UTF-8"?>
<svg width="21px" height="21px" viewBox="0 0 21 21" version="1.1" xmlns="http://www.w3.org/2000/svg" xmlns:xlink="http://www.w3.org/1999/xlink">
    <!-- Generator: Sketch 55 (78076) - https://sketchapp.com -->
    <title>Shape 3 Copy</title>
    <desc>Created with Sketch.</desc>
    <g id="Web-1280" stroke="none" stroke-width="1" fill="none" fill-rule="evenodd">
        <g id="Social-vacation" transform="translate(-269.000000, -1702.000000)" fill="#1A1A1A" fill-rule="nonzero">
            <g id="Group-11" transform="translate(105.000000, 1520.000000)">
                <g id="Shape-3-Copy" transform="translate(164.000000, 182.000000)">
                    <g id="Group-2">
                        <path d="M14.455814,6.8127907 L8.66860465,12.6 L6.05581395,9.9872093 C5.66511628,9.59651163 5.05465116,9.59651163 4.66395349,9.9872093 C4.27325581,10.377907 4.27325581,10.9883721 4.66395349,11.3790698 L7.96046512,14.6755814 C8.15581395,14.8709302 8.4,14.9686047 8.64418605,14.9686047 C8.88837209,14.9686047 9.13255814,14.8709302 9.32790698,14.6755814 L15.7988372,8.20465116 C16.1895349,7.81395349 16.1895349,7.20348837 15.7988372,6.8127907 C15.4569767,6.44651163 14.822093,6.44651163 14.455814,6.8127907 Z" id="Path"></path>
                        <path d="M10.5,0 C4.7127907,0 0,4.7127907 0,10.5 C0,16.2872093 4.7127907,21 10.5,21 C16.2872093,21 21,16.2872093 21,10.5 C21,4.7127907 16.2872093,0 10.5,0 Z M10.5,19.0465116 C5.7872093,19.0465116 1.95348837,15.2127907 1.95348837,10.5 C1.95348837,5.7872093 5.7872093,1.95348837 10.5,1.95348837 C15.2127907,1.95348837 19.0465116,5.7872093 19.0465116,10.5 C19.0465116,15.2127907 15.2127907,19.0465116 10.5,19.0465116 Z" id="Shape"></path>
                    </g>
                </g>
            </g>
        </g>
    </g>
</svg>