<?xml version="1.0" encoding="UTF-8"?>
<svg width="24px" height="24px" viewBox="0 0 24 24" version="1.1" xmlns="http://www.w3.org/2000/svg" xmlns:xlink="http://www.w3.org/1999/xlink">
    <!-- Generator: Sketch 55.1 (78136) - https://sketchapp.com -->
    <title>Download Copy 2</title>
    <desc>Created with Sketch.</desc>
    <g id="Web-1280" stroke="none" stroke-width="1" fill="none" fill-rule="evenodd">
        <g id="Transfers" transform="translate(-1005.000000, -556.000000)" fill="#BFBFBF" fill-rule="nonzero">
            <g id="Download-Copy-2" transform="translate(1005.000000, 556.000000)">
                <g id="Download-Copy">
                    <g id="Group">
                        <g id="Shape">
                            <path d="M19.2727273,10.9090909 C18.969697,10.9090909 18.7151515,11.0181818 18.5090909,11.2363636 L13.0909091,16.6363636 L13.0909091,1.09090909 C13.0909091,0.787878788 12.9878788,0.533333333 12.7818182,0.327272727 C12.5636364,0.109090909 12.3030303,0 12,0 C11.6969697,0 11.4424242,0.109090909 11.2363636,0.327272727 C11.0181818,0.533333333 10.9090909,0.787878788 10.9090909,1.09090909 L10.9090909,16.6363636 L5.50909091,11.2363636 C5.29090909,11.0181818 5.03030303,10.9090909 4.72727273,10.9090909 C4.42424242,10.9090909 4.16969697,11.0181818 3.96363636,11.2363636 C3.74545455,11.4424242 3.63636364,11.6969697 3.63636364,12 C3.63636364,12.3030303 3.74545455,12.5636364 3.96363636,12.7818182 L11.2363636,20.0545455 C11.4424242,20.2606061 11.6969697,20.3636364 12,20.3636364 C12.3030303,20.3636364 12.5636364,20.2606061 12.7818182,20.0545455 L20.0545455,12.7818182 C20.2606061,12.5636364 20.3636364,12.3030303 20.3636364,12 C20.3636364,11.6969697 20.2606061,11.4424242 20.0545455,11.2363636 C19.8363636,11.0181818 19.5757576,10.9090909 19.2727273,10.9090909 L19.2727273,10.9090909 Z M23.6909091,23.6909091 C23.8969697,23.4727273 24,23.2121212 24,22.9090909 C24,22.6060606 23.8969697,22.3515152 23.6909091,22.1454545 C23.4727273,21.9272727 23.2121212,21.8181818 22.9090909,21.8181818 L1.09090909,21.8181818 C0.787878788,21.8181818 0.533333333,21.9272727 0.327272727,22.1454545 C0.109090909,22.3515152 0,22.6060606 0,22.9090909 C0,23.2121212 0.109090909,23.4727273 0.327272727,23.6909091 C0.533333333,23.8969697 0.787878788,24 1.09090909,24 L22.9090909,24 C23.2121212,24 23.4727273,23.8969697 23.6909091,23.6909091 Z"></path>
                        </g>
                    </g>
                </g>
            </g>
        </g>
    </g>
</svg>