<?xml version="1.0" encoding="UTF-8"?>
<svg width="24px" height="22px" viewBox="0 0 24 22" version="1.1" xmlns="http://www.w3.org/2000/svg" xmlns:xlink="http://www.w3.org/1999/xlink">
    <!-- Generator: Sketch 55 (78076) - https://sketchapp.com -->
    <title>Shape 3</title>
    <desc>Created with Sketch.</desc>
    <g id="Web-1280" stroke="none" stroke-width="1" fill="none" fill-rule="evenodd">
        <g id="Social-vacation" transform="translate(-267.000000, -1559.000000)" fill="#1A1A1A" fill-rule="nonzero">
            <g id="Group-11" transform="translate(105.000000, 1520.000000)">
                <g id="Shape-3" transform="translate(162.000000, 39.000000)">
                    <path d="M21.8472222,8.00000002 L21.8472222,5 C21.8472222,4.4 21.45,4 20.8541667,4 L18.8680556,4 L18.8680556,5 C18.8680556,5.59999999 18.4708333,6 17.875,6 C17.2791667,6 16.8819444,5.59999999 16.8819444,5 L16.8819444,4 L6.9513889,4 L6.9513889,5 C6.9513889,5.59999999 6.55416667,6 5.95833333,6 C5.3625,6 4.96527776,5.59999999 4.96527776,5 L4.96527776,4 L2.97916667,4 C2.38333333,4 1.98611111,4.4 1.98611111,5 L1.98611111,8 L21.8472222,8.00000002 Z M21.8472222,9.99999999 L1.98611111,9.99999999 L1.98611111,19 C1.98611111,19.6 2.38333333,20 2.97916667,20 L20.8541667,20 C21.45,20 21.8472222,19.6 21.8472222,19 L21.8472222,9.99999999 Z M18.8680556,2 L20.8541667,2 C22.5423611,2 23.8333333,3.3 23.8333333,5 L23.8333333,19 C23.8333333,20.7 22.5423611,22 20.8541667,22 L2.97916667,22 C1.29097222,22 0,20.7 0,19 L0,5 C0,3.3 1.29097222,2 2.97916667,2 L4.96527776,2 L4.96527776,0.999999999 C4.96527776,0.4 5.3625,0 5.95833333,0 C6.55416667,0 6.9513889,0.4 6.9513889,0.999999999 L6.9513889,2 L16.8819444,2 L16.8819444,0.999999999 C16.8819444,0.4 17.2791667,0 17.875,0 C18.4708333,0 18.8680556,0.4 18.8680556,0.999999999 L18.8680556,2 Z" id="Shape"></path>
                </g>
            </g>
        </g>
    </g>
</svg>