<?xml version="1.0" encoding="UTF-8"?>
<svg width="22px" height="20px" viewBox="0 0 22 20" version="1.1" xmlns="http://www.w3.org/2000/svg" xmlns:xlink="http://www.w3.org/1999/xlink">
    <!-- Generator: Sketch 55 (78076) - https://sketchapp.com -->
    <title>Group 13 Copy</title>
    <desc>Created with Sketch.</desc>
    <g id="Web-1280" stroke="none" stroke-width="1" fill="none" fill-rule="evenodd" stroke-linecap="round" stroke-linejoin="round">
        <g id="Tours" transform="translate(-98.000000, -2969.000000)" fill="#1A1A1A" fill-rule="nonzero" stroke="#1A1A1A" stroke-width="0.5">
            <g id="Group-13-Copy" transform="translate(99.000000, 2970.000000)">
                <path d="M10.5269231,4.31818182 C10.4143357,4.31818182 10.3017483,4.31818182 10.1891608,4.31818182 C10.0765734,4.31818182 9.96398601,4.31818182 9.8513986,4.31818182 C9.00699301,4.37575758 8.16258741,4.49090909 7.26188811,4.72121212 C3.26503497,5.81515152 0.394055944,8.80909091 0.281468531,8.92424242 L1.0658141e-14,9.21212121 L0.281468531,9.5 C0.337762238,9.55757576 1.85769231,11.1121212 4.22202797,12.4363636 C6.2486014,13.530303 8.21888112,14.1060606 10.1891608,14.1060606 C10.1891608,14.1060606 10.2454545,14.1060606 10.2454545,14.1060606 C10.2454545,14.1060606 10.3017483,14.1060606 10.3017483,14.1060606 C12.2157343,14.1060606 14.2423077,13.530303 16.2688811,12.4363636 C18.6332168,11.1121212 20.1531469,9.55757576 20.2094406,9.5 L20.4909091,9.21212121 L20.2094406,8.92424242 C20.0968531,8.80909091 17.2258741,5.87272727 13.229021,4.72121212 C12.2157343,4.49090909 11.3713287,4.37575758 10.5269231,4.31818182 Z M10.2454545,13.3 C10.2454545,13.3 10.1891608,13.3 10.1891608,13.3 C10.1891608,13.3 10.1328671,13.3 10.1328671,13.3 C7.99370629,13.2424242 6.2486014,11.4575758 6.2486014,9.26969697 C6.2486014,7.13939394 7.82482517,5.41212121 9.8513986,5.23939394 C10.0765734,5.23939394 10.3017483,5.23939394 10.5832168,5.23939394 C12.6097902,5.41212121 14.186014,7.13939394 14.186014,9.26969697 C14.1297203,11.4575758 12.3846154,13.2424242 10.2454545,13.3 Z M1.18216783,9.21212121 C1.97027972,8.52121212 4.05314685,6.73636364 6.75524476,5.75757576 C5.91083916,6.62121212 5.4041958,7.83030303 5.4041958,9.21212121 C5.4041958,10.5363636 5.91083916,11.7454545 6.81153846,12.6666667 C6.07972028,12.4363636 5.3479021,12.0909091 4.61608392,11.6878788 C2.92727273,10.7666667 1.7451049,9.73030303 1.18216783,9.21212121 Z M15.7622378,11.6878788 C15.0304196,12.0909091 14.2986014,12.4363636 13.5667832,12.6666667 C14.4111888,11.8030303 14.9741259,10.5939394 14.9741259,9.21212121 C14.9741259,7.88787879 14.4674825,6.67878788 13.6230769,5.75757576 C16.3251748,6.67878788 18.4643357,8.46363636 19.1961538,9.21212121 C18.6332168,9.73030303 17.3947552,10.7666667 15.7622378,11.6878788 Z" id="Shape"></path>
                <path d="M10.1891608,7.65757576 C9.34475524,7.65757576 8.66923077,8.34848485 8.66923077,9.21212121 C8.66923077,10.0757576 9.34475524,10.7666667 10.1891608,10.7666667 C11.0335664,10.7666667 11.7090909,10.0757576 11.7090909,9.21212121 C11.7090909,8.34848485 11.0335664,7.65757576 10.1891608,7.65757576 Z M10.1891608,9.9030303 C9.7951049,9.9030303 9.51363636,9.61515152 9.51363636,9.21212121 C9.51363636,8.80909091 9.7951049,8.52121212 10.1891608,8.52121212 C10.5832168,8.52121212 10.8646853,8.80909091 10.8646853,9.21212121 C10.8646853,9.61515152 10.5832168,9.9030303 10.1891608,9.9030303 Z" id="Shape"></path>
                <rect id="Rectangle" x="9.7951049" y="9.1038288e-14" width="1" height="2.76363636"></rect>
                <polygon id="Rectangle" transform="translate(6.576259, 2.370132) rotate(-30.005690) translate(-6.576259, -2.370132) " points="6.16496492 1.00013444 7.01420365 0.991806082 6.98755291 3.7401295 6.13831419 3.74845786"></polygon>
                <polygon id="Rectangle" transform="translate(13.769356, 2.350493) rotate(30.005690) translate(-13.769356, -2.350493) " points="13.3314114 0.972166992 14.1806501 0.980495347 14.2073008 3.72881877 13.3580621 3.72049041"></polygon>
                <rect id="Rectangle" x="9.7951049" y="15.7181818" width="1" height="2.76363636"></rect>
                <polygon id="Rectangle" transform="translate(6.568124, 16.119945) rotate(120.000728) translate(-6.568124, -16.119945) " points="5.19819272 15.7086714 7.94638333 15.6820247 7.93805623 16.5312195 5.18986562 16.5578662"></polygon>
                <polygon id="Rectangle" transform="translate(13.793287, 16.064060) rotate(149.994310) translate(-13.793287, -16.064060) " points="13.3819926 14.694062 14.2312313 14.6857337 14.2045806 17.4340571 13.3553418 17.4423854"></polygon>
            </g>
        </g>
    </g>
</svg>