<?xml version="1.0" encoding="UTF-8"?>
<svg width="25px" height="12px" viewBox="0 0 25 12" version="1.1" xmlns="http://www.w3.org/2000/svg" xmlns:xlink="http://www.w3.org/1999/xlink">
    <!-- Generator: Sketch 55 (78076) - https://sketchapp.com -->
    <title>Shape</title>
    <desc>Created with Sketch.</desc>
    <g id="Web-1280" stroke="none" stroke-width="1" fill="none" fill-rule="evenodd">
        <g id="main" transform="translate(-105.000000, -3888.000000)" fill="#1A1A1A" fill-rule="nonzero">
            <path d="M123.958333,3888 C121.791667,3888 119.916667,3889.11724 118.875,3890.81379 C118.5,3890.48276 118.041667,3890.31724 117.5,3890.31724 C116.958333,3890.31724 116.5,3890.52414 116.125,3890.81379 C115.041667,3889.11724 113.166667,3888 111.041667,3888 C107.708333,3888 105,3890.68966 105,3894 C105,3897.31034 107.708333,3900 111.041667,3900 C114.375,3900 117.083333,3897.31034 117.083333,3894 L117.083333,3892.38621 C117.083333,3892.13793 117.291667,3891.97241 117.5,3891.97241 C117.75,3891.97241 117.916667,3892.17931 117.916667,3892.38621 L117.916667,3894 C117.916667,3897.31034 120.625,3900 123.958333,3900 C127.291667,3900 130,3897.31034 130,3894 C130,3890.68966 127.291667,3888 123.958333,3888 Z M111.041667,3898.34483 C108.625,3898.34483 106.666667,3896.4 106.666667,3894 C106.666667,3891.6 108.625,3889.65517 111.041667,3889.65517 C113.458333,3889.65517 115.416667,3891.6 115.416667,3894 C115.416667,3896.4 113.458333,3898.34483 111.041667,3898.34483 Z M123.958333,3898.34483 C121.541667,3898.34483 119.583333,3896.4 119.583333,3894 C119.583333,3891.6 121.541667,3889.65517 123.958333,3889.65517 C126.375,3889.65517 128.333333,3891.6 128.333333,3894 C128.333333,3896.4 126.375,3898.34483 123.958333,3898.34483 Z" id="Shape"></path>
        </g>
    </g>
</svg>