<?xml version="1.0" encoding="UTF-8"?>
<svg width="32px" height="23px" viewBox="0 0 32 23" version="1.1" xmlns="http://www.w3.org/2000/svg" xmlns:xlink="http://www.w3.org/1999/xlink">
    <!-- Generator: Sketch 55 (78076) - https://sketchapp.com -->
    <title>Shape</title>
    <desc>Created with Sketch.</desc>
    <g id="Web-1280" stroke="none" stroke-width="1" fill="none" fill-rule="evenodd">
        <g id="main" transform="translate(-264.000000, -588.000000)" fill="#1A1A1A" fill-rule="nonzero">
            <g id="Group-11" transform="translate(105.000000, 531.000000)">
                <path d="M189.994721,67.4294118 C190.947662,68.0647059 189.994721,69.4411765 189.04178,68.8058824 L186.712368,67.2176471 L186.712368,78.6529412 C186.712368,79.0764706 186.394721,79.5 185.971192,79.5 L163.524133,79.5 C162.994721,79.5 162.677074,79.0764706 162.677074,78.6529412 L162.677074,67.2176471 L160.347662,68.8058824 C159.394721,69.4411765 158.44178,68.0647059 159.394721,67.4294118 L174.218251,57.1588235 C174.535898,56.9470588 174.959427,56.9470588 175.171192,57.1588235 L189.994721,67.4294118 Z M185.124133,77.8058824 L185.124133,66.0529412 L174.747662,58.8529412 L164.371192,66.0529412 L164.371192,77.8058824 L185.124133,77.8058824 Z" id="Shape"></path>
            </g>
        </g>
    </g>
</svg>