<?xml version="1.0" encoding="UTF-8"?>
<svg width="18px" height="18px" viewBox="0 0 18 18" version="1.1" xmlns="http://www.w3.org/2000/svg" xmlns:xlink="http://www.w3.org/1999/xlink">
    <!-- Generator: Sketch 55.1 (78136) - https://sketchapp.com -->
    <title>Group</title>
    <desc>Created with Sketch.</desc>
    <g id="Web-1280" stroke="none" stroke-width="1" fill="none" fill-rule="evenodd">
        <g id="main" transform="translate(-105.000000, -484.000000)" fill="#1A1A1A" fill-rule="nonzero">
            <g id="Group" transform="translate(105.000000, 484.000000)">
                <path d="M1.39610454,17.9046895 C1.01841266,17.924917 0.649192308,17.7879212 0.376104535,17.5262279 C-0.316203157,16.8339202 0.0737968431,15.6500741 0.535335305,14.2954587 C0.708412228,13.783151 0.996873766,12.9339202 0.973796843,12.6546895 C-0.859968662,8.75388189 0.373191838,4.09949916 3.89782435,1.61837818 C7.42245687,-0.862742799 12.220016,-0.453609728 15.2736306,2.58850036 C18.3272451,5.63061046 18.7544841,10.4265911 16.2866848,13.9605637 C13.8188855,17.4945363 9.16919065,18.7452564 5.26148915,16.9262279 C4.98456607,16.9077664 4.13302761,17.1939202 3.62071992,17.3646895 C2.7853353,17.6462279 2.03071992,17.9046895 1.39610454,17.9046895 Z M9.0253353,1.60776639 C5.01275844,1.61285204 1.76119019,4.8644203 1.75610454,8.87699716 C1.75100146,9.95416346 1.98757784,11.0187571 2.44841223,11.9923818 C2.77610454,12.6846895 2.45995069,13.6077664 2.06071992,14.8008433 C1.88733636,15.2801168 1.74322484,15.7694795 1.62918146,16.2662279 C2.12591987,16.1521461 2.6152802,16.0080353 3.09456607,15.8346895 C4.27841223,15.4354587 5.21302761,15.1193049 5.90302761,15.4469972 C6.87665225,15.9078316 7.94124593,16.1444079 9.01841223,16.1393049 C13.0330975,16.1393049 16.287643,12.8847594 16.287643,8.87007408 C16.287643,4.85538879 13.0330975,1.60084331 9.01841223,1.60084331 L9.0253353,1.60776639 Z" id="Shape"></path>
                <circle id="Oval" cx="8.95379684" cy="12.1793049" r="1.15384615"></circle>
                <path d="M8.95379684,10.4623818 C8.38027037,10.4623818 7.9153353,9.99744671 7.9153353,9.42392024 L7.9153353,5.2054587 C7.9153353,4.63193223 8.38027037,4.16699716 8.95379684,4.16699716 C9.52732331,4.16699716 9.99225838,4.63193223 9.99225838,5.2054587 L9.99225838,9.42392024 C9.99225838,9.99744671 9.52732331,10.4623818 8.95379684,10.4623818 Z" id="Path"></path>
            </g>
        </g>
    </g>
</svg>