<?xml version="1.0" encoding="UTF-8"?>
<svg width="19px" height="20px" viewBox="0 0 19 20" version="1.1" xmlns="http://www.w3.org/2000/svg" xmlns:xlink="http://www.w3.org/1999/xlink">
    <!-- Generator: Sketch 55 (78076) - https://sketchapp.com -->
    <title>Group 8</title>
    <desc>Created with Sketch.</desc>
    <g id="Web-1280" stroke="none" stroke-width="1" fill="none" fill-rule="evenodd">
        <g id="Tours-+-filters" transform="translate(-104.000000, -488.000000)">
            <g id="Group-8" transform="translate(101.000000, 486.000000)">
                <rect id="Rectangle" x="0" y="0" width="24" height="24"></rect>
                <path d="M19.1781818,9.64909091 L13.86,9.64909091 L14.8472727,5.83090909 C14.9653384,5.37364301 14.8652221,4.88747819 14.5760942,4.51406578 C14.2869663,4.14065338 13.8413533,3.92200174 13.3690909,3.92181818 L13.0309091,3.92181818 C12.8329812,3.92325973 12.6513663,4.03181115 12.5563636,4.20545455 C11.5690909,6.08727273 8.01818182,9.37636364 8.01818182,9.37636364 L5.16545455,9.37636364 C4.90411235,9.3763596 4.65355287,9.48054928 4.46926864,9.66585731 C4.28498441,9.85116534 4.18218446,10.1022982 4.18363636,10.3636364 L4.18363636,19.0909091 C4.18363636,19.6331523 4.62321134,20.0727273 5.16545455,20.0727273 L17.3836364,20.0727273 C18.6031063,20.0754041 19.6479207,19.2008899 19.86,18 L20.9018182,11.7054545 C20.9941614,11.1953449 20.8549805,10.670582 20.5219697,10.2732875 C20.1889589,9.875993 19.6965792,9.64728001 19.1781818,9.64909091 Z" id="Path" stroke="#1A1A1A" stroke-width="2" stroke-linecap="round" stroke-linejoin="round"></path>
                <path d="M8.01272727,20.0727273 L8.01272727,9.38181818" id="Path" stroke="#1A1A1A" stroke-width="2" stroke-linecap="round" stroke-linejoin="round"></path>
            </g>
        </g>
    </g>
</svg>