<?xml version="1.0" encoding="UTF-8"?>
<svg width="17px" height="17px" viewBox="0 0 17 17" version="1.1" xmlns="http://www.w3.org/2000/svg" xmlns:xlink="http://www.w3.org/1999/xlink">
    <!-- Generator: Sketch 55 (78076) - https://sketchapp.com -->
    <title>Shape 6</title>
    <desc>Created with Sketch.</desc>
    <g id="Web-1280" stroke="none" stroke-width="1" fill="none" fill-rule="evenodd">
        <g id="Social-vacation" transform="translate(-106.000000, -2385.000000)" fill="#1A1A1A" fill-rule="nonzero">
            <g id="Shape-6" transform="translate(106.000000, 2385.000000)">
                <path d="M8.24264069,5.41438508 C7.8521164,5.80490937 7.21895142,5.80490937 6.82842712,5.41438508 C6.43790283,5.02386078 6.43790283,4.39069581 6.82842712,4.00017151 L9.6570258,1.17157288 C11.2191229,-0.390524293 13.7517828,-0.390524293 15.31388,1.17157288 C16.8759772,2.73367004 16.8759772,5.26632996 15.31388,6.82842712 L12.4854529,9.6568542 C12.0949286,10.0473785 11.4617636,10.0473785 11.0712393,9.6568542 C10.680715,9.26633 10.680715,8.63316498 11.0712393,8.24264069 L13.8996664,5.41421356 C14.680715,4.63316498 14.680715,3.36683502 13.8996664,2.58578644 C13.1186179,1.80473785 11.8522879,1.80473785 11.0712393,2.58578644 L8.24264069,5.41438508 Z M8.2428122,11.0710678 C8.63333649,10.6805435 9.2665015,10.6805435 9.6570258,11.0710678 C10.0475501,11.4615921 10.0475501,12.0947571 9.6570258,12.4852814 L6.82842712,15.31388 C5.26632996,16.8759772 2.73367004,16.8759772 1.17157288,15.31388 C-0.390524293,13.7517828 -0.390524293,11.2191229 1.17157288,9.6570258 L4,6.82859864 C4.39052429,6.43807435 5.02368927,6.43807435 5.41421356,6.82859864 C5.80473785,7.21912293 5.80473785,7.85228791 5.41421356,8.2428122 L2.58578644,11.0712393 C1.80473785,11.8522879 1.80473785,13.1186179 2.58578644,13.8996664 C3.36683502,14.680715 4.63316498,14.680715 5.41421356,13.8996664 L8.2428122,11.0710678 Z M11.0712393,5.41421356 C11.4617636,5.80473785 11.4617636,6.43790283 11.0712393,6.82842712 L6.82859864,11.0710678 C6.43807435,11.4615921 5.80490937,11.4615921 5.41438508,11.0710678 C5.02386078,10.6805435 5.02386078,10.0473785 5.41438508,9.6568542 L9.6570258,5.41421356 C10.0475501,5.02368927 10.680715,5.02368927 11.0712393,5.41421356 Z" id="Shape"></path>
            </g>
        </g>
    </g>
</svg>