<?xml version="1.0" encoding="UTF-8"?>
<svg width="24px" height="26px" viewBox="0 0 24 26" version="1.1" xmlns="http://www.w3.org/2000/svg" xmlns:xlink="http://www.w3.org/1999/xlink">
    <!-- Generator: Sketch 55 (78076) - https://sketchapp.com -->
    <title>Shape</title>
    <desc>Created with Sketch.</desc>
    <g id="Web-1280" stroke="none" stroke-width="1" fill="none" fill-rule="evenodd">
        <g id="main" transform="translate(-268.000000, -793.000000)" fill="#1A1A1A" fill-rule="nonzero">
            <g id="Group-16" transform="translate(105.000000, 739.000000)">
                <g id="Shape-2" transform="translate(163.000000, 54.000000)">
                    <path d="M12.7947368,6.94473684 L16.1473684,1.53947368 C16.3526316,1.23157895 16.25,0.786842105 15.9421053,0.581578947 C15.6342105,0.376315789 15.1894737,0.478947368 14.9842105,0.786842105 L12.7263158,4.44736842 L12.7263158,0.684210526 C12.7263158,0.307894737 12.4184211,9.23705556e-14 12.0421053,9.23705556e-14 C11.6657895,9.23705556e-14 11.3578947,0.307894737 11.3578947,0.684210526 L11.3578947,4.61842105 L8.99736842,0.821052632 C8.79210526,0.513157895 8.38157895,0.410526316 8.03947368,0.615789474 C7.73157895,0.821052632 7.62894737,1.23157895 7.83421053,1.57368421 L11.1868421,6.97894737 L0.102631579,24.7342105 C-0.0342105263,24.9394737 -0.0342105263,25.2131579 0.102631579,25.4184211 C0.239473684,25.6236842 0.444736842,25.7605263 0.684210526,25.7605263 L23.2631579,25.7605263 C23.5026316,25.7605263 23.7421053,25.6236842 23.8447368,25.4184211 C23.9815789,25.2131579 23.9473684,24.9394737 23.8447368,24.7342105 L12.7947368,6.94473684 Z M11.9736842,8.21052632 L15.9421053,14.6078947 L8.00526316,14.6078947 L11.9736842,8.21052632 Z M8.00526316,24.4263158 L11.9736842,18.0631579 L15.9421053,24.4263158 L8.00526316,24.4263158 L8.00526316,24.4263158 Z M17.55,24.4263158 L12.5552632,16.3868421 C12.4184211,16.1815789 12.2131579,16.0789474 11.9736842,16.0789474 C11.7342105,16.0789474 11.5289474,16.2157895 11.3921053,16.3868421 L6.39736842,24.4263158 L1.91578947,24.4263158 L7.15,15.9763158 C7.18421053,15.9763158 7.18421053,15.9763158 7.21842105,15.9763158 L16.7631579,15.9763158 L21.9973684,24.4263158 L17.55,24.4263158 Z" id="Shape"></path>
                </g>
            </g>
        </g>
    </g>
</svg>