<?xml version="1.0" encoding="UTF-8"?>
<svg width="31px" height="20px" viewBox="0 0 31 20" version="1.1" xmlns="http://www.w3.org/2000/svg" xmlns:xlink="http://www.w3.org/1999/xlink">
    <!-- Generator: Sketch 55 (78076) - https://sketchapp.com -->
    <title>Group 8</title>
    <desc>Created with Sketch.</desc>
    <g id="Web-1280" stroke="none" stroke-width="1" fill="none" fill-rule="evenodd">
        <g id="Tours" transform="translate(-985.000000, -2783.000000)" fill="#1A1A1A" fill-rule="nonzero">
            <g id="Group-8" transform="translate(985.000000, 2783.000000)">
                <path d="M28.675,3.07692308 L27.9,3.07692308 L27.9,2.30769231 C27.9,1.03318904 26.859062,0 25.575,0 L2.325,0 C1.04093796,0 0,1.03318904 0,2.30769231 L0,14.6153846 C0,15.8898879 1.04093796,16.9230769 2.325,16.9230769 L3.1,16.9230769 L3.1,17.6923077 C3.1,18.966811 4.14093796,20 5.425,20 L28.675,20 C29.959062,20 31,18.966811 31,17.6923077 L31,5.38461538 C31,4.11011212 29.959062,3.07692308 28.675,3.07692308 Z M1.55,14.6153846 L1.55,2.30769231 C1.55,1.88285788 1.89697932,1.53846154 2.325,1.53846154 L25.575,1.53846154 C26.0030207,1.53846154 26.35,1.88285788 26.35,2.30769231 L26.35,14.6153846 C26.35,15.040219 26.0030207,15.3846154 25.575,15.3846154 L2.325,15.3846154 C1.89697932,15.3846154 1.55,15.040219 1.55,14.6153846 Z M29.45,17.6923077 C29.45,18.1171421 29.1030207,18.4615385 28.675,18.4615385 L5.425,18.4615385 C4.99697932,18.4615385 4.65,18.1171421 4.65,17.6923077 L4.65,16.9230769 L25.575,16.9230769 C26.859062,16.9230769 27.9,15.8898879 27.9,14.6153846 L27.9,4.61538462 L28.675,4.61538462 C29.1030207,4.61538462 29.45,4.95978096 29.45,5.38461538 L29.45,17.6923077 Z" id="Shape"></path>
                <path d="M13.95,12.3076923 C16.0901034,12.3076923 17.825,10.5857106 17.825,8.46153846 C17.825,6.33736635 16.0901034,4.61538462 13.95,4.61538462 C11.8098966,4.61538462 10.075,6.33736635 10.075,8.46153846 C10.075,10.5857106 11.8098966,12.3076923 13.95,12.3076923 L13.95,12.3076923 Z M13.95,6.15384615 C15.234062,6.15384615 16.275,7.18703519 16.275,8.46153846 C16.275,9.73604173 15.234062,10.7692308 13.95,10.7692308 C12.665938,10.7692308 11.625,9.73604173 11.625,8.46153846 C11.625,7.18703519 12.665938,6.15384615 13.95,6.15384615 Z" id="Shape"></path>
                <path d="M20.925,4.61538462 L24.025,4.61538462 C24.4530207,4.61538462 24.8,4.27098827 24.8,3.84615385 C24.8,3.42131942 24.4530207,3.07692308 24.025,3.07692308 L20.925,3.07692308 C20.4969793,3.07692308 20.15,3.42131942 20.15,3.84615385 C20.15,4.27098827 20.4969793,4.61538462 20.925,4.61538462 Z" id="Path"></path>
                <path d="M6.975,13.8461538 C7.40302068,13.8461538 7.75,13.5017575 7.75,13.0769231 C7.75,12.6520887 7.40302068,12.3076923 6.975,12.3076923 L3.875,12.3076923 C3.44697932,12.3076923 3.1,12.6520887 3.1,13.0769231 C3.1,13.5017575 3.44697932,13.8461538 3.875,13.8461538 L6.975,13.8461538 Z" id="Path"></path>
            </g>
        </g>
    </g>
</svg>