<?xml version="1.0" encoding="UTF-8"?>
<svg width="23px" height="15px" viewBox="0 0 23 15" version="1.1" xmlns="http://www.w3.org/2000/svg" xmlns:xlink="http://www.w3.org/1999/xlink">
    <!-- Generator: Sketch 55 (78076) - https://sketchapp.com -->
    <title>Group</title>
    <desc>Created with Sketch.</desc>
    <g id="Web-1280" stroke="none" stroke-width="1" fill="none" fill-rule="evenodd">
        <g id="main" transform="translate(-106.000000, -1392.000000)" fill="#1A1A1A" fill-rule="nonzero">
            <g id="Group" transform="translate(106.000000, 1392.000000)">
                <path d="M22.1375,-1.81188398e-13 L4.3125,-1.81188398e-13 C3.809375,-1.81188398e-13 3.378125,0.428571429 3.378125,0.928571429 L3.378125,1.78571429 L0.934375,1.78571429 C0.43125,1.78571429 -1.42108547e-14,2.21428571 -1.42108547e-14,2.71428571 L-1.42108547e-14,12.5714286 C-1.42108547e-14,13.6428571 1.00625,14.5714286 2.15625,14.5714286 L20.55625,14.5714286 C21.85,14.5714286 22.928125,13.5714286 22.928125,12.3571429 L22.928125,0.928571429 C23.071875,0.357142857 22.640625,-1.81188398e-13 22.1375,-1.81188398e-13 Z M3.378125,12.4285714 C3.378125,12.5 3.234375,12.6428571 3.01875,12.6428571 L2.3,12.6428571 C2.228125,12.6428571 2.228125,12.6428571 2.15625,12.6428571 C1.940625,12.6428571 1.86875,12.5 1.86875,12.4285714 L1.86875,3.5 L3.378125,3.5 L3.378125,12.4285714 Z M21.275,12.2857143 C21.275,12.5 20.9875,12.7142857 20.7,12.7142857 L5.175,12.7142857 C5.175,12.6428571 5.175,12.5714286 5.175,12.5 L5.175,1.78571429 L21.275,1.78571429 L21.275,12.2857143 Z" id="Shape"></path>
                <path d="M8.48125,10.2142857 L17.96875,10.2142857 C18.471875,10.2142857 18.903125,9.78571429 18.903125,9.28571429 C18.903125,8.78571429 18.471875,8.35714286 17.96875,8.35714286 L8.48125,8.35714286 C7.978125,8.35714286 7.546875,8.78571429 7.546875,9.28571429 C7.546875,9.78571429 7.978125,10.2142857 8.48125,10.2142857 Z" id="Path"></path>
                <path d="M8.48125,6 L17.96875,6 C18.471875,6 18.903125,5.57142857 18.903125,5.07142857 C18.903125,4.57142857 18.471875,4.14285714 17.96875,4.14285714 L8.48125,4.14285714 C7.978125,4.14285714 7.546875,4.57142857 7.546875,5.07142857 C7.546875,5.57142857 7.978125,6 8.48125,6 Z" id="Path"></path>
            </g>
        </g>
    </g>
</svg>