<?xml version="1.0" encoding="UTF-8"?>
<svg width="32px" height="32px" viewBox="0 0 32 32" version="1.1" xmlns="http://www.w3.org/2000/svg" xmlns:xlink="http://www.w3.org/1999/xlink">
    <!-- Generator: Sketch 55.1 (78136) - https://sketchapp.com -->
    <title>Group 5</title>
    <desc>Created with Sketch.</desc>
    <g id="Symbols" stroke="none" stroke-width="1" fill="none" fill-rule="evenodd">
        <g id="Footer" transform="translate(-864.000000, -140.000000)">
            <g id="Stacked-Group" transform="translate(825.000000, 141.000000)">
                <g id="Group-5" transform="translate(40.000000, 0.000000)">
                    <path d="M0,15 C0,6.71572834 6.71572834,0 15,0 C23.2842717,0 30,6.71572834 30,15 C30,23.2842717 23.2842717,30 15,30 C6.71572834,30 0,23.2842717 0,15 Z" id="back" stroke="#E3775B"></path>
                    <path d="M15.5408312,10.0416838 C16.3648472,10.0416838 17.035116,10.6884776 17.035116,11.4838901 C17.035116,12.2786772 16.3648472,12.9258879 15.5408312,12.9258879 C14.717463,12.9258879 14.0465464,12.2786772 14.0465464,11.4838901 C14.0465464,10.6884776 14.717463,10.0416838 15.5408312,10.0416838 L15.5408312,10.0416838 Z M15.5408312,14.9667379 C13.5505388,14.9667379 11.9318742,13.4044694 11.9318742,11.4838901 C11.9318742,9.5626854 13.5505388,8 15.5408312,8 C17.5315554,8 19.1497881,9.5626854 19.1497881,11.4838901 C19.1497881,13.4044694 17.5315554,14.9667379 15.5408312,14.9667379 Z M17.0102288,17.8101698 L19.0277292,19.7578465 C19.4410329,20.1559697 19.4410329,20.802555 19.0277292,21.201095 C18.6148575,21.599635 17.9456684,21.599635 17.5332285,21.201095 L15.5496302,19.2871858 L13.5677593,21.201095 C13.3611075,21.4001566 13.0903224,21.4997916 12.8195372,21.4997916 C12.549184,21.4997916 12.2788307,21.4001566 12.0721789,21.201095 C11.6593071,20.802555 11.6593071,20.1563865 12.071747,19.7578465 L14.0894634,17.8101698 C13.3548453,17.6486277 12.6463557,17.3676487 11.9937937,16.9724437 C11.4999455,16.6718712 11.3515968,16.0421696 11.6627621,15.5650472 C11.9730638,15.0872994 12.6256257,14.9434748 13.1203376,15.2440474 C14.5977794,16.1411793 16.5010491,16.1413877 17.9793545,15.2440474 C18.4740665,14.9434748 19.1264125,15.0872994 19.4373619,15.5650472 C19.7485273,16.0417527 19.5997466,16.6718712 19.1058985,16.9724437 C18.4533365,17.3680655 17.7448468,17.6486277 17.0102288,17.8101698 Z" id="Shape" fill="#E3775B"></path>
                </g>
            </g>
        </g>
    </g>
</svg>