<?xml version="1.0" encoding="UTF-8"?>
<svg width="42px" height="21px" viewBox="0 0 42 21" version="1.1" xmlns="http://www.w3.org/2000/svg" xmlns:xlink="http://www.w3.org/1999/xlink">
    <!-- Generator: Sketch 55 (78076) - https://sketchapp.com -->
    <title>Group 8</title>
    <desc>Created with Sketch.</desc>
    <g id="Web-1280" stroke="none" stroke-width="1" fill="none" fill-rule="evenodd">
        <g id="main" transform="translate(-619.000000, -797.000000)" fill="#1A1A1A" fill-rule="nonzero">
            <g id="Group-15" transform="translate(464.000000, 739.000000)">
                <g id="Group-8" transform="translate(155.000000, 58.000000)">
                    <path d="M14.7276174,5.57418226 C14.7276174,2.5002529 12.226388,-1.0658141e-14 9.1529469,-1.0658141e-14 C6.07999401,-1.0658141e-14 3.57974111,2.5002529 3.57974111,5.57418226 C3.57974111,7.53444693 4.59917639,9.25791749 6.13272342,10.2519645 C2.94064113,11.3802763 0.535105873,14.2364527 -1.77635684e-14,17.7224526 L1.47886468,17.7224526 C2.15409408,14.0118645 5.3354352,11.1923057 9.15343514,11.1923057 L9.15343514,11.1483645 C12.2273645,11.147388 14.7276174,8.64762338 14.7276174,5.57418226 Z M9.1529469,9.68365866 C6.88753518,9.68365866 5.04444697,7.84008222 5.04444697,5.57418226 C5.04444697,3.30779406 6.88753518,1.46470586 9.1529469,1.46470586 C11.4198233,1.46470586 13.2629115,3.30779406 13.2629115,5.57418226 C13.2629115,7.84008222 11.4198233,9.68365866 9.1529469,9.68365866 Z" id="Shape"></path>
                    <path d="M35.1636817,10.2519645 C36.6982053,9.25791749 37.7171523,7.53444693 37.7171523,5.57418226 C37.7171523,2.5002529 35.2168994,-1.42108547e-14 32.1434583,-1.42108547e-14 C29.0700171,-1.42108547e-14 26.5687878,2.5002529 26.5687878,5.57418226 C26.5687878,8.64762338 29.0690407,11.1478763 32.1424818,11.1483645 L32.1424818,11.1923057 C35.9604817,11.1923057 39.1418229,14.0118645 39.8170523,17.7224526 L41.2959169,17.7224526 C40.7612993,14.2364527 38.3562523,11.3802763 35.1636817,10.2519645 Z M32.1439465,9.68365866 C29.8770701,9.68365866 28.0339819,7.84008222 28.0339819,5.57418226 C28.0339819,3.30779406 29.8770701,1.46470586 32.1439465,1.46470586 C34.4098465,1.46470586 36.2529347,3.30779406 36.2529347,5.57418226 C36.2529347,7.84008222 34.4098465,9.68365866 32.1439465,9.68365866 Z" id="Shape"></path>
                    <path d="M23.6686702,12.7668645 C25.2036819,11.7723292 26.222629,10.0493469 26.222629,8.08908221 C26.222629,5.01515285 23.7213996,2.51489996 20.6479585,2.51489996 C17.5745173,2.51489996 15.0742644,5.01515285 15.0742644,8.08908221 C15.0742644,10.0493469 16.0936997,11.7723292 17.6272468,12.7668645 C14.4356527,13.8961527 12.0296292,16.7508644 11.4945233,20.2373526 L12.973388,20.2373526 C13.6491056,16.5267644 16.8304468,13.7072056 20.6484467,13.7072056 C24.4664466,13.7072056 27.648276,16.5267644 28.3230172,20.2373526 L29.8018818,20.2373526 C29.266776,16.7508644 26.8612407,13.894688 23.6686702,12.7668645 Z M20.6479585,12.1985586 C18.3815703,12.1985586 16.5389703,10.3544939 16.5389703,8.08908221 C16.5389703,5.82269402 18.3815703,3.97960581 20.6479585,3.97960581 C22.9153231,3.97960581 24.7579231,5.82269402 24.7579231,8.08908221 C24.7579231,10.3549822 22.9153231,12.1985586 20.6479585,12.1985586 Z" id="Shape"></path>
                </g>
            </g>
        </g>
    </g>
</svg>