<?xml version="1.0" encoding="UTF-8"?>
<svg width="46px" height="28px" viewBox="0 0 46 28" version="1.1" xmlns="http://www.w3.org/2000/svg" xmlns:xlink="http://www.w3.org/1999/xlink">
    <!-- Generator: Sketch 55 (78076) - https://sketchapp.com -->
    <title>Shape 3</title>
    <desc>Created with Sketch.</desc>
    <g id="Web-1280" stroke="none" stroke-width="1" fill="none" fill-rule="evenodd">
        <g id="Tours" transform="translate(-328.000000, -437.000000)" fill="#FFD8D1" fill-rule="nonzero">
            <g id="Shape-3" transform="translate(328.000000, 437.000000)">
                <path d="M12.4203873,26.212766 C10.9220159,24.4255319 11.3715273,21.893617 13.3194101,20.5531915 C11.5213645,19.212766 11.0718531,16.6808511 12.4203873,14.7446809 L7.47576187,7.29787234 L8.82429607,6.40425532 L14.0685957,14.2978723 C15.8666413,17.1276596 20.0620811,14.2978723 18.2640355,11.4680851 L13.0197358,3.57446809 L14.36827,2.82978723 L16.9155013,6.70212766 C17.2151755,6.55319149 17.5148498,6.55319149 17.8145241,6.55319149 C27.5539378,6.55319149 32.1988889,6.55319149 41.9383026,6.55319149 C45.3845567,6.55319149 45.2347195,1.4893617 41.9383026,1.4893617 L15.2672928,1.4893617 C-2.86300035,1.4893617 -2.26365181,24.2765957 12.4203873,26.212766 Z M13.4692472,16.0851064 C12.5702244,17.7234043 13.7689215,19.8085106 15.7168042,19.8085106 L26.3552407,19.8085106 C29.6516576,19.8085106 29.8014948,14.7446809 26.3552407,14.7446809 L19.7624068,14.7446809 C18.5637097,16.8297872 15.5669671,17.8723404 13.4692472,16.0851064 Z M20.2119182,13.106383 C22.9089866,13.106383 25.4562179,13.106383 28.0034492,13.106383 C31.8992146,13.106383 31.5995404,8.19148936 28.3031234,8.19148936 L17.8145241,8.19148936 L19.6125697,10.7234043 C20.3617554,11.9148936 20.2119182,13.2553191 20.2119182,13.106383 Z M15.7168042,21.2978723 C12.2705501,21.2978723 12.2705501,26.3617021 15.7168042,26.3617021 L20.5115925,26.3617021 L26.2054036,26.3617021 C29.8014948,26.3617021 29.3519834,21.4468085 26.3552407,21.2978723 L15.7168042,21.2978723 Z M28.6027977,20.5531915 C31.8992146,22.9361702 30.101169,28 26.2054036,28 C22.159801,28 18.1141983,28 14.0685957,28 C-3.76202315,28 -6.00958015,0 15.2672928,0 L41.9383026,0 C47.3324394,0 47.3324394,8.19148936 41.9383026,8.19148936 L31.5995404,8.19148936 C33.397586,10.4255319 32.1988889,13.8510638 29.3519834,14.5957447 C31.0001918,16.3829787 30.7005176,19.212766 28.6027977,20.5531915 Z" id="Shape"></path>
            </g>
        </g>
    </g>
</svg>