<?xml version="1.0" encoding="UTF-8"?>
<svg width="27px" height="21px" viewBox="0 0 27 21" version="1.1" xmlns="http://www.w3.org/2000/svg" xmlns:xlink="http://www.w3.org/1999/xlink">
    <!-- Generator: Sketch 55 (78076) - https://sketchapp.com -->
    <title>Shape 2</title>
    <desc>Created with Sketch.</desc>
    <g id="Web-1280" stroke="none" stroke-width="1" fill="none" fill-rule="evenodd">
        <g id="Social-vacation" transform="translate(-101.000000, -3405.000000)" fill="#1A1A1A" fill-rule="nonzero">
            <g id="Shape-2" transform="translate(101.000000, 3405.000000)">
                <path d="M26.3896056,10.4961549 C26.3896056,8.36421127 25.188169,6.47095775 23.2925493,5.55701408 C23.2925493,5.53542254 23.2931408,5.51383099 23.2931408,5.49194366 C23.2931408,2.46350704 20.8290423,0 17.8006056,0 C16.6686761,0 15.5648451,0.35256338 14.6426197,1.00090141 C13.7209859,0.35256338 12.6174507,0 11.4846338,0 C8.45708451,0 5.99357746,2.46350704 5.99357746,5.49194366 C5.99357746,5.51353521 5.99416901,5.53512676 5.99416901,5.55701408 C4.09795775,6.47066197 2.89592958,8.36421127 2.89592958,10.4961549 C2.89592958,12.6280986 4.09795775,14.5216479 5.99446479,15.4355915 C5.99446479,15.4574789 5.99387324,15.4790704 5.99387324,15.500662 C5.99387324,18.528507 8.45738028,20.9920141 11.4849296,20.9920141 C12.6177465,20.9920141 13.7212817,20.6397465 14.6429155,19.9908169 C15.5651408,20.6394507 16.6689718,20.9920141 17.8009014,20.9920141 C20.829338,20.9920141 23.2934366,18.528507 23.2934366,15.500662 C23.2934366,15.4787746 23.2928451,15.4571831 23.2928451,15.4355915 C25.188169,14.5213521 26.3896056,12.6280986 26.3896056,10.4961549 Z M22.442493,14.4814225 C22.1899014,14.5793239 22.0325493,14.8328028 22.0576901,15.1028451 C22.0721831,15.2560563 22.0778028,15.3826479 22.0778028,15.500662 C22.0778028,17.8588732 20.1594085,19.7778592 17.8006056,19.7778592 C16.7902394,19.7778592 15.8085634,19.4164225 15.0357042,18.7609859 C14.9227183,18.6645634 14.7825211,18.6166479 14.6426197,18.6166479 C14.5030141,18.6166479 14.364,18.6645634 14.2501268,18.7609859 C13.4772676,19.4164225 12.4958873,19.7778592 11.4846338,19.7778592 C9.12671831,19.7778592 7.20802817,17.8588732 7.20802817,15.500662 C7.20802817,15.3820563 7.21423944,15.2519155 7.22784507,15.1028451 C7.25269014,14.8328028 7.09592958,14.5790282 6.84274648,14.4814225 C5.18315493,13.8372254 4.10978873,12.2728732 4.10978873,10.4961549 C4.10978873,8.71914085 5.18315493,7.15538028 6.84274648,6.5111831 C7.0956338,6.41328169 7.25269014,6.15980282 7.22814085,5.89005634 C7.21394366,5.73773239 7.20802817,5.61114085 7.20802817,5.49194366 C7.20802817,3.13314085 9.12671831,1.2144507 11.4846338,1.2144507 C12.4958873,1.2144507 13.4769718,1.57559155 14.2501268,2.23102817 C14.4763944,2.42357746 14.8088451,2.42357746 15.0357042,2.23132394 C15.8082676,1.57559155 16.7902394,1.2144507 17.8006056,1.2144507 C20.1594085,1.2144507 22.0778028,3.13343662 22.0778028,5.49194366 C22.0778028,5.60907042 22.0718873,5.7353662 22.0576901,5.89005634 C22.0331408,6.16009859 22.190493,6.41357746 22.442493,6.5111831 C24.1032676,7.15538028 25.1754507,8.71914085 25.1754507,10.4961549 C25.1754507,12.2728732 24.1032676,13.8369296 22.442493,14.4814225 Z M2.27480282,15.6648169 C1.01953521,15.6648169 0,16.6852394 0,17.9393239 C0,19.1931127 1.01953521,20.2135352 2.27480282,20.2135352 C3.52770423,20.2135352 4.54871831,19.1931127 4.54871831,17.9393239 C4.54871831,16.6852394 3.52770423,15.6648169 2.27480282,15.6648169 Z M2.27480282,18.9990845 C1.68946479,18.9990845 1.21415493,18.5237746 1.21415493,17.9393239 C1.21415493,17.3548732 1.68946479,16.8792676 2.27480282,16.8792676 C2.85866197,16.8792676 3.33367606,17.3548732 3.33367606,17.9393239 C3.33367606,18.5237746 2.85866197,18.9990845 2.27480282,18.9990845 Z M15.2501408,12.9034648 L15.2501408,12.3364648 C16.8162676,12.0498592 18.0067606,10.6756901 18.0067606,9.02822535 C18.0067606,7.17342254 16.4977183,5.66467606 14.6426197,5.66467606 C12.7884085,5.66467606 11.279662,7.17342254 11.279662,9.02822535 C11.279662,9.3636338 11.5514789,9.6354507 11.8868873,9.6354507 C12.2225915,9.6354507 12.4944085,9.3636338 12.4944085,9.02822535 C12.4944085,7.84335211 13.458338,6.87912676 14.6429155,6.87912676 C15.827493,6.87912676 16.7926056,7.84335211 16.7926056,9.02822535 C16.7926056,10.2128028 15.827493,11.1767324 14.6429155,11.1767324 C14.3080986,11.1767324 14.0356901,11.4485493 14.0356901,11.7839577 L14.0356901,12.903169 C14.0356901,13.2382817 14.3080986,13.5103944 14.6429155,13.5103944 C14.9783239,13.5106901 15.2501408,13.2385775 15.2501408,12.9034648 Z M15.0723803,15.1480986 C15.1847746,15.0357042 15.2513239,14.8774648 15.2513239,14.7198169 C15.2513239,14.5589155 15.1844789,14.4009718 15.0723803,14.2885775 C14.8475915,14.0637887 14.4403099,14.0637887 14.2131549,14.2885775 C14.1013521,14.4009718 14.0365775,14.5586197 14.0365775,14.7198169 C14.0365775,14.8774648 14.1013521,15.0354085 14.2131549,15.1480986 C14.328507,15.260493 14.4831972,15.3270423 14.6440986,15.3270423 C14.8026338,15.3270423 14.9602817,15.260493 15.0723803,15.1480986 Z" id="Shape"></path>
            </g>
        </g>
    </g>
</svg>