<?xml version="1.0" encoding="UTF-8"?>
<svg width="13px" height="13px" viewBox="0 0 13 13" version="1.1" xmlns="http://www.w3.org/2000/svg" xmlns:xlink="http://www.w3.org/1999/xlink">
    <!-- Generator: Sketch 55 (78076) - https://sketchapp.com -->
    <title>Shape 2</title>
    <desc>Created with Sketch.</desc>
    <g id="Web-1280" stroke="none" stroke-width="1" fill="none" fill-rule="evenodd">
        <g id="Tours-+-search-results" transform="translate(-105.000000, -507.000000)" fill="#1A1A1A" fill-rule="nonzero">
            <g id="Shape-2" transform="translate(105.000000, 507.000000)">
                <path d="M12.7961685,11.770613 L10.340613,9.32227962 C12.2122479,6.91292282 11.8880462,3.46358967 9.60024671,1.44517671 C7.31244723,-0.57323626 3.84960202,-0.465028298 1.69228686,1.69228686 C-0.465028298,3.84960202 -0.57323626,7.31244723 1.44517671,9.60024671 C3.46358967,11.8880462 6.91292282,12.2122479 9.32227962,10.340613 L11.770613,12.7889463 C12.057162,13.0343406 12.4843087,13.0178418 12.7510753,12.7510753 C13.0178418,12.4843087 13.0343406,12.057162 12.7889463,11.770613 L12.7961685,11.770613 Z M1.4500574,5.78339073 C1.4500574,3.39015681 3.39015681,1.4500574 5.78339073,1.4500574 C8.17662465,1.4500574 10.1167241,3.39015681 10.1167241,5.78339073 C10.1167241,8.17662465 8.17662465,10.1167241 5.78339073,10.1167241 C3.39015681,10.1167241 1.4500574,8.17662465 1.4500574,5.78339073 Z" id="Shape"></path>
            </g>
        </g>
    </g>
</svg>