<?xml version="1.0" encoding="UTF-8"?>
<svg width="17px" height="26px" viewBox="0 0 17 26" version="1.1" xmlns="http://www.w3.org/2000/svg" xmlns:xlink="http://www.w3.org/1999/xlink">
    <!-- Generator: Sketch 55 (78076) - https://sketchapp.com -->
    <title>Shape</title>
    <desc>Created with Sketch.</desc>
    <g id="Web-1280" stroke="none" stroke-width="1" fill="none" fill-rule="evenodd">
        <g id="main" transform="translate(-271.000000, -1002.000000)" fill="#1A1A1A" fill-rule="nonzero">
            <g id="Group-17" transform="translate(105.000000, 947.000000)">
                <g id="Shape-4" transform="translate(166.000000, 55.000000)">
                    <path d="M16.1769497,5.70594058 C16.5236164,3.84780724 16.8009497,1.58060724 14.9740164,0.346473909 C13.5873497,-0.596459424 12.5161497,0.554473909 11.8782831,1.77474058 C11.0636164,3.34167391 10.5574831,5.13394058 10.0721497,6.90887391 C9.70468305,5.40087391 9.33374972,3.89287391 8.91428305,2.40220724 C8.49481639,0.911540576 7.95054972,0.0379405755 6.32468305,0.221673909 C2.74014972,0.606473909 4.43881639,5.74407391 5.28468305,8.27474058 C4.51568219,8.28928776 3.78784416,8.62492291 3.27748305,9.20034058 C2.38308305,8.81207391 1.13508305,8.93687391 0.504149718,9.61287391 C-0.0366502815,10.1987406 0.0118830518,11.0515406 0.0153497185,11.7934072 C0.0188163851,12.5352739 0.0708163851,13.2910072 0.0812163851,14.0398072 C0.020667167,14.1536333 -0.00694452739,14.2820877 0.00148305179,14.4107406 C0.143616385,16.9518072 -0.289716948,20.2694072 1.38814972,22.3840739 C2.72281639,24.0758072 5.20148305,25.2752739 7.31268305,25.6046072 C11.9857497,26.3360739 16.5929497,22.2870072 15.9100164,17.4614072 C15.7248871,16.1260198 15.0638245,14.902377 14.0484164,14.0155406 L14.0692164,13.9670072 C14.9233006,11.2542091 15.6269493,8.49632281 16.1769497,5.70594058 Z M5.43028305,9.75500724 C5.8671917,9.69159212 6.28807178,9.94557148 6.43561639,10.3616739 C6.73721639,11.0550072 6.61934972,11.8835406 6.60894972,12.6531406 C5.78388305,12.5838072 4.92414972,12.5768739 4.47694972,12.8958072 C4.47694972,12.6288739 4.47694972,12.3654072 4.45614972,12.1088739 C4.48058044,11.5006079 4.42226955,10.8918422 4.28281639,10.2992739 C4.28442914,10.2877746 4.28442914,10.2761065 4.28281639,10.2646072 C4.31748305,9.83820724 5.09054972,9.76194058 5.41988305,9.75500724 L5.43028305,9.75500724 Z M2.37961639,10.4899406 C2.55698097,10.4503652 2.73980043,10.5285171 2.83374972,10.6840739 C3.15614972,11.0307406 3.03828305,12.6184739 3.00708305,13.1107406 C2.93081639,14.2062072 2.32068305,14.3864739 1.54414972,14.1958072 C1.54414972,13.6480739 1.51641639,13.1038072 1.49561639,12.5526072 C1.44540934,12.1721284 1.43843159,11.7871891 1.47481639,11.4051406 C1.37081639,10.8608739 1.67241639,10.5592739 2.36921639,10.4899406 L2.37961639,10.4899406 Z M11.6321497,23.3616739 C9.17081639,24.8696739 6.27614972,24.2075406 3.97081639,22.7238072 C2.45241639,21.7496739 1.85961639,20.5814072 1.69668305,18.7891406 C1.60308305,17.7491406 1.56148305,16.7091406 1.51641639,15.6691406 C2.46281639,15.8216739 3.42654972,15.6206072 3.98814972,14.8094072 C4.2158649,15.5542171 4.74163869,16.1715935 5.44068305,16.5150072 C5.92621448,16.6790683 6.42664801,16.7951781 6.93481639,16.8616739 C7.47561639,16.9656739 8.90388305,16.9622072 9.32334972,17.2984739 C9.32334972,17.2984739 9.70121639,18.1859406 9.74974972,18.2518072 C9.99746175,18.5707286 10.2933688,18.8490917 10.6268164,19.0768739 C11.3756164,19.6419406 12.1036164,18.3835406 11.3617497,17.8184739 C10.4812164,17.1494072 10.7342831,16.3243406 9.70814972,15.8944739 C8.78601639,15.5096739 5.39214972,15.7315406 5.42681639,14.1854072 C6.60201639,14.0363406 8.06494972,14.2651406 9.19508305,14.2790072 C10.8070831,14.2998072 12.3878831,14.2374072 13.5318831,15.5651406 C15.6569497,18.0126072 14.1212164,21.8398072 11.6321497,23.3616739 Z M12.0966831,12.9998072 C10.8694831,12.6878072 9.48974972,12.8126072 8.23828305,12.7987406 L8.04761639,12.7987406 C7.99561639,11.3531406 8.21401639,9.56780724 6.89668305,8.69767391 C6.89798154,8.62227444 6.88625378,8.54721673 6.86201639,8.47580724 C6.46344746,7.23684836 6.14501184,5.97352742 5.90868305,4.69367391 C5.80468305,4.11127391 5.45801639,3.02274058 5.61748305,2.44034058 C5.92601639,1.32407391 6.92094972,1.50434058 7.38201639,2.33287391 C7.94361639,3.34514058 8.07534972,5.01954058 8.35961639,6.14620724 C8.66930527,7.40807391 8.99054972,8.66878502 9.32334972,9.92834058 C9.41868939,10.2360031 9.70325362,10.4457354 10.0253497,10.4457354 C10.3474458,10.4457354 10.63201,10.2360031 10.7273497,9.92834058 L12.3601497,4.72834058 C12.5958831,3.97607391 12.7622831,2.92220724 13.2476164,2.27740724 C14.1316164,1.10220724 14.6897497,1.96540724 14.9150831,2.97074058 C15.2860164,4.64167391 14.4713497,6.84994058 14.0726831,8.49314058 C13.6774831,10.1086072 13.2372164,11.6616739 12.7657497,13.2286072 C12.5479367,13.1378818 12.3244405,13.061453 12.0966831,12.9998072 Z" id="Shape"></path>
                </g>
            </g>
        </g>
    </g>
</svg>