<?xml version="1.0" encoding="UTF-8"?>
<svg width="23px" height="23px" viewBox="0 0 23 23" version="1.1" xmlns="http://www.w3.org/2000/svg" xmlns:xlink="http://www.w3.org/1999/xlink">
    <!-- Generator: Sketch 55 (78076) - https://sketchapp.com -->
    <title>Group 10</title>
    <desc>Created with Sketch.</desc>
    <g id="Web-1280" stroke="none" stroke-width="1" fill="none" fill-rule="evenodd">
        <g id="main" transform="translate(-459.000000, -1782.000000)" fill="#1A1A1A" fill-rule="nonzero" stroke="#1A1A1A" stroke-width="0.5">
            <g id="Group-10" transform="translate(460.000000, 1783.000000)">
                <path d="M20.6581551,5.98967991 L18.0556151,5.12248991 C17.0116983,4.77193252 16.1923125,3.95254666 15.8417551,2.90862991 L14.9745651,0.306089907 C14.8901777,0.119727858 14.7045328,-1.98951966e-13 14.49995,-1.98951966e-13 C14.2953774,-1.98729921e-13 14.1097325,0.119727858 14.0253451,0.306089907 L13.1581551,2.90862991 C12.8075977,3.95254666 11.9882118,4.77193252 10.9442951,5.12248991 L8.34175509,5.98967991 C8.1376015,6.05790384 7.99995,6.24903844 7.99995,6.46428991 C7.99995,6.67954137 8.1376015,6.87067597 8.34175509,6.93889991 L10.9442951,7.80608991 C11.9882118,8.1566473 12.8075977,8.97603315 13.1581551,10.0199499 L14.0253451,12.6224899 C14.093569,12.8266435 14.2847036,12.964295 14.4999551,12.964295 C14.7152066,12.964295 14.9063412,12.8266435 14.9745651,12.6224899 L15.8417551,10.0199499 C16.1923125,8.97603315 17.0116983,8.1566473 18.0556151,7.80608991 L20.6581551,6.93889991 C20.8623087,6.87067597 20.9999602,6.67954137 20.9999602,6.46428991 C20.9999602,6.24903844 20.8623087,6.05790384 20.6581551,5.98967991 L20.6581551,5.98967991 Z M17.7392151,6.85686991 C16.3972534,7.30820193 15.3438671,8.36158821 14.8925351,9.70354991 L14.4999551,10.8822899 L14.1073751,9.70357991 C13.6560431,8.36161821 12.6026568,7.30823193 11.2606951,6.85689991 L10.0819551,6.46428991 L11.2606651,6.07170991 C12.6026268,5.62037788 13.6560131,4.56699161 14.1073451,3.22502991 L14.4999551,2.04628991 L14.8925351,3.22499991 C15.3438671,4.56696161 16.3972534,5.62034788 17.7392151,6.07167991 L18.9179551,6.46428991 L17.7392151,6.85686991 Z" id="Shape"></path>
                <path d="M3.49995509,13.0453399 L4.02534509,14.6224899 C4.09356903,14.8266435 4.28470363,14.964295 4.49995509,14.964295 C4.71520656,14.964295 4.90634116,14.8266435 4.97456509,14.6224899 L5.49995509,13.0453399 C5.75034865,12.2998694 6.3354846,11.7147335 7.08095509,11.4643399 L8.65810509,10.9389499 C8.86225869,10.870726 8.99991019,10.6795914 8.99991019,10.4643399 C8.99991019,10.2490884 8.86225869,10.0579538 8.65810509,9.98972991 L7.08100509,9.46428991 C6.33551551,9.21390958 5.750359,8.62877157 5.49995509,7.88328991 L4.97456509,6.30608991 C4.89017773,6.11972786 4.70453281,6 4.49995509,6 C4.29537738,6 4.10973246,6.11972786 4.02534509,6.30608991 L3.49995509,7.88328991 C3.24956154,8.6287604 2.66442559,9.21389635 1.91895509,9.46428991 L0.341805095,9.98967991 C0.137651503,10.0579038 3.55271368e-15,10.2490384 3.55271368e-15,10.4642899 C3.55271368e-15,10.6795414 0.137651503,10.870676 0.341805095,10.9388999 L1.91895509,11.4642899 C2.66443676,11.7146938 3.24957477,12.2998503 3.49995509,13.0453399 Z M2.23530509,10.4135099 C3.27885095,10.0623449 4.09801009,9.24318576 4.44917509,8.19963991 L4.49995509,8.04628991 L4.55073509,8.19960991 C4.9019001,9.24315576 5.72105924,10.0623149 6.76460509,10.4134799 L6.91795509,10.4642899 L6.76463509,10.5150699 C5.72108924,10.8662349 4.9019301,11.6853941 4.55076509,12.7289399 L4.49995509,12.8822899 L4.44917509,12.7289699 C4.09801009,11.6854241 3.27885095,10.8662649 2.23530509,10.5150999 L2.08195509,10.4642899 L2.23530509,10.4135099 Z" id="Shape"></path>
                <path d="M14.6581551,15.9896799 L13.0810051,15.4642899 C12.3355155,15.2139096 11.750359,14.6287716 11.4999551,13.8832899 L10.9745651,12.3061399 C10.8901777,12.1197779 10.7045328,12.00005 10.4999551,12.00005 C10.2953774,12.00005 10.1097325,12.1197779 10.0253451,12.3061399 L9.49995509,13.8832899 C9.24956154,14.6287604 8.66442559,15.2138964 7.91895509,15.4642899 L6.34180509,15.9896799 C6.1376515,16.0579038 6,16.2490384 6,16.4642899 C6,16.6795414 6.1376515,16.870676 6.34180509,16.9388999 L7.91895509,17.4642899 C8.66443676,17.7146938 9.24957477,18.2998503 9.49995509,19.0453399 L10.0253451,20.6224899 C10.093569,20.8266435 10.2847036,20.964295 10.4999551,20.964295 C10.7152066,20.964295 10.9063412,20.8266435 10.9745651,20.6224899 L11.4999551,19.0453399 C11.7503458,18.2998391 12.3355043,17.7146806 13.0810051,17.4642899 L14.6581551,16.9388999 C14.8623087,16.870676 14.9999602,16.6795414 14.9999602,16.4642899 C14.9999602,16.2490384 14.8623087,16.0579038 14.6581551,15.9896799 L14.6581551,15.9896799 Z M12.7646051,16.5150699 C11.7210592,16.8662349 10.9019001,17.6853941 10.5507351,18.7289399 L10.4999551,18.8822899 L10.4491751,18.7289699 C10.0980101,17.6854241 9.27885095,16.8662649 8.23530509,16.5150999 L8.08195509,16.4642899 L8.23527509,16.4135099 C9.27882095,16.0623449 10.0979801,15.2431858 10.4491451,14.1996399 L10.4999551,14.0462899 L10.5507351,14.1996099 C10.9019001,15.2431558 11.7210592,16.0623149 12.7646051,16.4134799 L12.9179551,16.4642899 L12.7646051,16.5150699 Z" id="Shape"></path>
            </g>
        </g>
    </g>
</svg>