<?xml version="1.0" encoding="UTF-8"?>
<svg width="20px" height="21px" viewBox="0 0 20 21" version="1.1" xmlns="http://www.w3.org/2000/svg" xmlns:xlink="http://www.w3.org/1999/xlink">
    <!-- Generator: Sketch 55.1 (78136) - https://sketchapp.com -->
    <title>Shape</title>
    <desc>Created with Sketch.</desc>
    <g id="Symbols" stroke="none" stroke-width="1" fill="none" fill-rule="evenodd">
        <g id="Subscribe---2" transform="translate(-180.000000, -57.000000)" fill="#FAD100" fill-rule="nonzero">
            <path d="M195.211813,62.3956132 L193.191446,62.3956132 L193.191446,60.6601415 L196.267821,60.6601415 C196.605906,60.6601415 196.878819,60.3936792 196.878819,60.0658019 L196.878819,57.5943396 C196.878819,57.2664623 196.604888,57 196.267821,57 L192.580448,57 C192.242363,57 191.96945,57.2664623 191.96945,57.5943396 L191.96945,62.3956132 L184.786151,62.3956132 C184.786151,62.3956132 184.786151,62.3956132 184.786151,62.3956132 L184.786151,62.3956132 C182.14664,62.3956132 180,64.4827358 180,67.050283 L180,72.8292453 C180,73.7029245 180.731161,74.4141509 181.629328,74.4141509 L188.351324,74.4141509 L188.351324,77.4056604 C188.351324,77.7335377 188.625255,78 188.962322,78 L192.243381,78 C192.581466,78 192.854379,77.7335377 192.854379,77.4056604 L192.854379,74.4131604 L198.370672,74.4131604 C199.268839,74.4131604 200,73.701934 200,72.8282547 L200,67.0492925 C199.998982,64.4827358 197.851324,62.3956132 195.211813,62.3956132 Z M193.191446,58.1886792 L195.655804,58.1886792 L195.655804,59.4724528 L193.191446,59.4724528 L193.191446,58.1886792 Z M188.350305,73.2254717 L181.62831,73.2254717 C181.403259,73.2254717 181.220978,73.0471698 181.220978,72.8292453 L181.220978,67.050283 C181.220978,65.1384906 182.819756,63.5833019 184.785132,63.5833019 C186.750509,63.5833019 188.349287,65.1384906 188.349287,67.050283 L188.349287,73.2254717 L188.350305,73.2254717 Z M191.631365,76.8113208 L189.57332,76.8113208 L189.57332,74.4131604 L191.631365,74.4131604 L191.631365,76.8113208 Z M198.776986,72.8292453 C198.776986,73.0481604 198.594705,73.2254717 198.369654,73.2254717 L189.572301,73.2254717 L189.572301,67.050283 C189.572301,65.6743868 188.955193,64.4361792 187.976578,63.5833019 L191.96945,63.5833019 L191.96945,65.1226415 C191.96945,65.4505189 192.243381,65.7169811 192.580448,65.7169811 C192.917515,65.7169811 193.191446,65.4505189 193.191446,65.1226415 L193.191446,63.5833019 L195.212831,63.5833019 C197.178208,63.5833019 198.776986,65.1384906 198.776986,67.050283 L198.776986,72.8292453 Z M186.505092,68.8729245 C186.505092,69.2008019 186.231161,69.4672642 185.894094,69.4672642 L183.677189,69.4672642 C183.339104,69.4672642 183.066191,69.2008019 183.066191,68.8729245 C183.066191,68.5450472 183.340122,68.2785849 183.677189,68.2785849 L185.893075,68.2785849 C186.231161,68.2785849 186.505092,68.5450472 186.505092,68.8729245 Z" id="Shape"></path>
        </g>
    </g>
</svg>