<?xml version="1.0" encoding="UTF-8"?>
<svg width="25px" height="21px" viewBox="0 0 25 21" version="1.1" xmlns="http://www.w3.org/2000/svg" xmlns:xlink="http://www.w3.org/1999/xlink">
    <!-- Generator: Sketch 55 (78076) - https://sketchapp.com -->
    <title>Group 6</title>
    <desc>Created with Sketch.</desc>
    <g id="Web-1280" stroke="none" stroke-width="1" fill="none" fill-rule="evenodd">
        <g id="main" transform="translate(-105.000000, -4930.000000)" fill="#1A1A1A" fill-rule="nonzero">
            <g id="Group-6" transform="translate(105.000000, 4930.000000)">
                <path d="M14.0625,13.4576267 C13.9470418,13.4576267 13.8341268,13.4198623 13.7410482,13.3485852 C13.6154175,13.2515483 13.5416667,13.1027415 13.5416667,12.9454316 L13.5416667,11.6907036 L11.4583333,11.6907036 L11.4583333,12.9454316 C11.4583333,13.1027415 11.3845825,13.2515483 11.2589518,13.3485852 C11.1323039,13.4456222 10.967509,13.4791349 10.8128866,13.4428711 L1.32344562,11.1432451 C1.29852292,11.1369927 1.27410885,11.1292397 1.25071208,11.1197361 L0.323486354,10.7458437 C0.127665208,10.6670637 0,10.4797423 0,10.2719131 L0,5.09344039 C0,4.24611759 0.700887031,3.55685502 1.5625,3.55685502 L23.4375,3.55685502 C24.299113,3.55685502 25,4.24611759 25,5.09344039 L25,10.2719132 C25,10.4797423 24.8723348,10.6668136 24.6770223,10.7458437 L23.7503052,11.1197362 C23.7263997,11.1292398 23.7019857,11.1369927 23.677063,11.1432451 L14.1871134,13.4428712 C14.1459147,13.4526248 14.1042073,13.4576267 14.0625,13.4576267 Z M11.4583333,10.6663134 L13.5416667,10.6663134 C14.1159058,10.6663134 14.5833333,11.1257384 14.5833333,11.6907036 L14.5833333,12.2916826 L23.3901978,10.1576196 L23.9583333,9.92853233 L23.9583333,5.09344039 C23.9583333,4.81108284 23.7248739,4.58124527 23.4375,4.58124527 L1.5625,4.58124527 C1.27512615,4.58124527 1.04166667,4.81108284 1.04166667,5.09344039 L1.04166667,9.92828222 L1.61031089,10.1576196 L10.4166667,12.2916826 L10.4166667,11.6907036 C10.4166667,11.1257384 10.8840942,10.6663134 11.4583333,10.6663134 Z" id="Shape"></path>
                <path d="M22.5107829,20.5515792 L2.48972573,20.5515792 C1.62811276,20.5515792 0.927225729,19.8623167 0.927225729,19.0149938 L0.927225729,10.6458056 C0.927225729,10.4884956 1.00097656,10.3396889 1.12660724,10.242652 C1.25325521,10.1453649 1.41703286,10.1108518 1.5726725,10.1483661 L11.0621134,12.4479921 C11.2945557,12.5045137 11.4583333,12.7098419 11.4583333,12.9454316 L11.4583333,14.7638744 L13.5416667,14.7638744 L13.5416667,12.9454316 C13.5416667,12.7098419 13.7054443,12.5045137 13.9378866,12.4479921 L23.4278361,10.1483661 C23.5834757,10.111352 23.7472534,10.145615 23.8739014,10.242652 C23.999532,10.3396889 24.0732829,10.4884956 24.0732829,10.6458056 L24.0732829,19.0149938 C24.0732829,19.8623166 23.3723958,20.5515792 22.5107829,20.5515792 Z M1.9688924,11.2995546 L1.9688924,19.0149938 C1.9688924,19.2973514 2.20235188,19.527189 2.48972573,19.527189 L22.5107829,19.527189 C22.7981567,19.527189 23.0316162,19.2973514 23.0316162,19.0149938 L23.0316162,11.2995546 L14.5833333,13.3468345 L14.5833333,14.7638744 C14.5833333,15.3288396 14.1159058,15.7882646 13.5416667,15.7882646 L11.4583333,15.7882646 C10.8840942,15.7882646 10.4166667,15.3288396 10.4166667,14.7638744 L10.4166667,13.3468345 L1.9688924,11.2995546 Z" id="Shape"></path>
                <path d="M16.8518067,4.5802449 L8.14819339,4.5802449 C7.86031089,4.5802449 7.62736005,4.35090754 7.62736005,4.06804978 L7.62736005,1.53658537 C7.62736005,0.689262563 8.32824708,3.33066907e-13 9.18986005,3.33066907e-13 L15.81014,3.33066907e-13 C16.671753,3.33066907e-13 17.37264,0.689262563 17.37264,1.53658537 L17.37264,4.06804973 C17.37264,4.35090749 17.1396891,4.5802449 16.8518067,4.5802449 Z M8.66902672,3.55585466 L16.3309733,3.55585466 L16.3309733,1.53658537 C16.3309733,1.25422782 16.0975139,1.02439024 15.81014,1.02439024 L9.18986005,1.02439024 C8.9024862,1.02439024 8.66902672,1.25422782 8.66902672,1.53658537 L8.66902672,3.55585466 Z" id="Shape"></path>
                <path d="M13.5416667,15.7882646 L11.4583333,15.7882646 C10.8840942,15.7882646 10.4166667,15.3288396 10.4166667,14.7638744 L10.4166667,11.6907036 C10.4166667,11.1257384 10.8840942,10.6663134 11.4583333,10.6663134 L13.5416667,10.6663134 C14.1159058,10.6663134 14.5833333,11.1257384 14.5833333,11.6907036 L14.5833333,14.7638744 C14.5833333,15.3288396 14.1159058,15.7882646 13.5416667,15.7882646 Z M11.4583333,11.6907036 L11.4583333,14.7638744 L13.5416667,14.7638744 L13.5416667,11.6922042 L11.4583333,11.6907036 Z M13.5416667,11.6907036 L14.0625,11.6907036 L13.5416667,11.6907036 L13.5416667,11.6907036 L13.5416667,11.6907036 Z" id="Shape"></path>
            </g>
        </g>
    </g>
</svg>