<?xml version="1.0" encoding="UTF-8"?>
<svg width="34px" height="34px" viewBox="0 0 34 34" version="1.1" xmlns="http://www.w3.org/2000/svg" xmlns:xlink="http://www.w3.org/1999/xlink">
    <!-- Generator: Sketch 55 (78076) - https://sketchapp.com -->
    <title>Group 9</title>
    <desc>Created with Sketch.</desc>
    <g id="Web-1280" stroke="none" stroke-width="1" fill="none" fill-rule="evenodd">
        <g id="main" transform="translate(-623.000000, -582.000000)" fill="#1A1A1A" fill-rule="nonzero">
            <g id="Group-13" transform="translate(464.000000, 531.000000)">
                <g id="Group-9" transform="translate(159.000000, 51.000000)">
                    <path d="M24.3288889,16.8488889 C24.3288889,12.717799 20.9799788,9.36888889 16.8488889,9.36888889 C12.717799,9.36888889 9.36888889,12.717799 9.36888889,16.8488889 C9.36888889,20.9799788 12.717799,24.3288889 16.8488889,24.3288889 C20.9799788,24.3288889 24.3288889,20.9799788 24.3288889,16.8488889 Z M16.8488889,22.8177778 C14.4346987,22.8177778 12.2582252,21.3635047 11.3343546,19.1330838 C10.410484,16.9026629 10.9211568,14.3353373 12.6282471,12.6282471 C14.3353373,10.9211568 16.9026629,10.410484 19.1330838,11.3343546 C21.3635047,12.2582252 22.8177778,14.4346987 22.8177778,16.8488889 C22.8177778,20.1454152 20.1454152,22.8177778 16.8488889,22.8177778 L16.8488889,22.8177778 Z" id="Shape"></path>
                    <path d="M17.6044444,32.9422222 L17.6044444,27.6155556 C17.6044444,27.1982737 17.2661707,26.86 16.8488889,26.86 C16.4316071,26.86 16.0933333,27.1982737 16.0933333,27.6155556 L16.0933333,32.9422222 C16.0933333,33.359504 16.4316071,33.6977778 16.8488889,33.6977778 C17.2661707,33.6977778 17.6044444,33.359504 17.6044444,32.9422222 Z" id="Path"></path>
                    <path d="M16.0933333,0.755555556 L16.0933333,6.08222222 C16.0933333,6.49950403 16.4316071,6.83777778 16.8488889,6.83777778 C17.2661707,6.83777778 17.6044444,6.49950403 17.6044444,6.08222222 L17.6044444,0.755555556 C17.6044444,0.338273745 17.2661707,1.81188398e-13 16.8488889,1.81188398e-13 C16.4316071,1.81188398e-13 16.0933333,0.338273745 16.0933333,0.755555556 Z" id="Path"></path>
                    <path d="M0.755555556,17.6044444 L6.08222222,17.6044444 C6.49950403,17.6044444 6.83777778,17.2661707 6.83777778,16.8488889 C6.83777778,16.4316071 6.49950403,16.0933333 6.08222222,16.0933333 L0.755555556,16.0933333 C0.338273745,16.0933333 1.81188398e-13,16.4316071 1.81188398e-13,16.8488889 C1.81188398e-13,17.2661707 0.338273745,17.6044444 0.755555556,17.6044444 Z" id="Path"></path>
                    <path d="M33.6977778,16.8488889 C33.6977778,16.4316071 33.359504,16.0933333 32.9422222,16.0933333 L27.6155556,16.0933333 C27.1982737,16.0933333 26.86,16.4316071 26.86,16.8488889 C26.86,17.2661707 27.1982737,17.6044444 27.6155556,17.6044444 L32.9422222,17.6044444 C33.359504,17.6044444 33.6977778,17.2661707 33.6977778,16.8488889 Z" id="Path"></path>
                    <path d="M9.78444444,23.9133333 C9.49065157,23.6253587 9.02045954,23.6253587 8.72666667,23.9133333 L4.94888889,27.6911111 C4.71237937,27.8684932 4.60105278,28.1675208 4.66398183,28.4563826 C4.72691089,28.7452443 4.95253347,28.9708669 5.24139521,29.0337959 C5.53025696,29.096725 5.82928453,28.9853984 6.00666667,28.7488889 L9.78444444,24.9711111 C10.0724191,24.6773182 10.0724191,24.2071262 9.78444444,23.9133333 L9.78444444,23.9133333 Z" id="Path"></path>
                    <path d="M24.9711111,9.78444444 L28.7488889,6.00666667 C28.9744904,5.70586466 28.9445768,5.2849488 28.6787029,5.01907488 C28.412829,4.75320095 27.9919131,4.72328738 27.6911111,4.94888889 L23.9133333,8.72666667 C23.6768238,8.9040488 23.5654972,9.20307637 23.6284263,9.49193812 C23.6913553,9.78079986 23.9169779,10.0064224 24.2058397,10.0693515 C24.4947014,10.1322806 24.793729,10.020954 24.9711111,9.78444444 L24.9711111,9.78444444 Z" id="Path"></path>
                    <path d="M8.72666667,9.78444444 C9.02746867,10.0100459 9.44838453,9.98013238 9.71425846,9.71425846 C9.98013238,9.44838453 10.0100459,9.02746867 9.78444444,8.72666667 L6.00666667,4.94888889 C5.70586466,4.72328738 5.2849488,4.75320095 5.01907488,5.01907488 C4.75320095,5.2849488 4.72328738,5.70586466 4.94888889,6.00666667 L8.72666667,9.78444444 Z" id="Path"></path>
                    <path d="M28.22,28.9755556 C28.522279,28.9713093 28.792929,28.7872905 28.908033,28.5077522 C29.0231371,28.2282138 28.9605349,27.9069736 28.7488889,27.6911111 L24.9711111,23.9133333 C24.6703091,23.6877318 24.2493932,23.7176454 23.9835193,23.9835193 C23.7176454,24.2493932 23.6877318,24.6703091 23.9133333,24.9711111 L27.6911111,28.7488889 C27.8306097,28.8912463 28.0207077,28.9727169 28.22,28.9755556 Z" id="Path"></path>
                </g>
            </g>
        </g>
    </g>
</svg>