<?xml version="1.0" encoding="UTF-8"?>
<svg width="32px" height="32px" viewBox="0 0 32 32" version="1.1" xmlns="http://www.w3.org/2000/svg" xmlns:xlink="http://www.w3.org/1999/xlink">
    <!-- Generator: Sketch 55 (78076) - https://sketchapp.com -->
    <title>Group</title>
    <desc>Created with Sketch.</desc>
    <g id="Web-1280" stroke="none" stroke-width="1" fill="none" fill-rule="evenodd">
        <g id="Tours" transform="translate(-263.000000, -2778.000000)" fill="#1A1A1A" fill-rule="nonzero">
            <g id="Group" transform="translate(263.000000, 2778.000000)">
                <path d="M19.9089383,31.8024691 C17.4095802,31.8024691 15.3756049,29.6995556 15.3756049,27.1142716 L15.3756049,15.8475062 L16.6253827,15.8475062 L16.6253827,27.1142716 C16.6253827,29.0103704 18.0983704,30.5526914 19.9089383,30.5526914 C21.7206914,30.5526914 23.1948642,29.0101728 23.1948642,27.1142716 L24.4444444,27.1142716 C24.4444444,29.6995556 22.4098765,31.8024691 19.9089383,31.8024691 Z" id="Path"></path>
                <path d="M16.0005926,16.4728889 C15.8419753,16.4728889 15.6835556,16.413037 15.5620741,16.2931358 C14.7597037,15.5032099 13.4795062,15.0311111 12.1366914,15.0311111 C10.7909136,15.0311111 9.5097284,15.5020247 8.70893827,16.2903704 C8.46617284,16.5299753 8.07644444,16.5299753 7.83288889,16.2915556 C7.02854321,15.5022222 5.74775309,15.0311111 4.4077037,15.0311111 C3.09846914,15.0311111 1.87693827,15.4639012 1.05679012,16.2186667 C0.858864198,16.4007901 0.566123457,16.435358 0.331061728,16.3051852 C0.0956049383,16.1748148 -0.0298271605,15.9083457 0.0193580247,15.6438519 C1.49175309,7.7657284 8.17461728,2.01659259 15.9095309,1.97333333 C15.9322469,1.97195062 16.0365432,1.97155556 16.1145679,1.97353086 C23.8293333,2.01639506 30.5094321,7.76592593 31.9802469,15.6438519 C32.0296296,15.9089383 31.9036049,16.1754074 31.6681481,16.3057778 C31.4320988,16.4359506 31.1397531,16.4003951 30.9416296,16.217679 C30.1264198,15.4637037 28.9058765,15.0313086 27.5930864,15.0313086 C26.253037,15.0313086 24.9734321,15.5024198 24.1700741,16.291358 C23.926321,16.5303704 23.5365926,16.5301728 23.2934321,16.2905679 C22.492642,15.5022222 21.2110617,15.0313086 19.8642963,15.0313086 C18.521679,15.0313086 17.2410864,15.5034074 16.438716,16.2937284 C16.3172346,16.413037 16.1590123,16.4728889 16.0005926,16.4728889 Z M12.1364938,13.7815309 C13.602963,13.7815309 14.9787654,14.227358 16.0007901,15.0198519 C17.0228148,14.227358 18.3984198,13.7815309 19.8646914,13.7815309 C21.3345185,13.7815309 22.7119012,14.2265679 23.7327407,15.017679 C24.7551605,14.2265679 26.1297778,13.7815309 27.5934815,13.7815309 C28.594963,13.7815309 29.5610864,13.9920988 30.3992099,14.3800494 C28.5274074,7.86765432 22.7275062,3.26024691 16.0888889,3.22311111 L16.0007901,3.22212346 L15.939358,3.22251852 C9.27802469,3.25985185 3.47377778,7.86864198 1.60118519,14.3816296 C2.44088889,13.9926914 3.40740741,13.7815309 4.40790123,13.7815309 C5.87160494,13.7815309 7.24661728,14.2265679 8.27002469,15.0178765 C9.29046914,14.2263704 10.6672593,13.7815309 12.1364938,13.7815309 Z" id="Shape"></path>
                <rect id="Rectangle" x="15.3756049" y="0.0827654321" width="1.24977778" height="2.51516049"></rect>
            </g>
        </g>
    </g>
</svg>