<?xml version="1.0" encoding="UTF-8"?>
<svg width="20px" height="15px" viewBox="0 0 20 15" version="1.1" xmlns="http://www.w3.org/2000/svg" xmlns:xlink="http://www.w3.org/1999/xlink">
    <!-- Generator: Sketch 55 (78076) - https://sketchapp.com -->
    <title>Group 20</title>
    <desc>Created with Sketch.</desc>
    <g id="Web-1280" stroke="none" stroke-width="1" fill="none" fill-rule="evenodd">
        <g id="main" transform="translate(-466.000000, -1392.000000)" fill="#1A1A1A" fill-rule="nonzero">
            <g id="Group-20" transform="translate(466.000000, 1392.000000)">
                <path d="M8.55305466,4.89270386 C8.4244373,4.82832618 8.23151125,4.95708155 8.23151125,5.15021459 L8.23151125,9.84978541 C8.23151125,10.0429185 8.4244373,10.1716738 8.55305466,10.1072961 L12.926045,7.72532189 C13.1189711,7.66094421 13.1189711,7.40343348 12.926045,7.27467811 L8.55305466,4.89270386 Z M9.1318328,3.99141631 L13.4405145,6.30901288 C14.4051447,6.82403433 14.340836,8.17596567 13.4405145,8.69098712 L9.06752412,11.0085837 C8.23151125,11.5236052 7.13826367,10.8798283 7.13826367,9.84978541 L7.13826367,5.15021459 C7.13826367,4.12017167 8.23151125,3.47639485 9.1318328,3.99141631 Z" id="Shape"></path>
                <path d="M16.6559486,1.0944206 L3.34405145,1.0944206 C2.1221865,1.0944206 1.09324759,2.12446352 1.09324759,3.34763948 L1.09324759,11.6523605 C1.09324759,12.8755365 2.1221865,13.9055794 3.34405145,13.9055794 L16.5916399,13.9055794 C17.8778135,13.9055794 18.9067524,12.8755365 18.9067524,11.6523605 L18.9067524,3.34763948 C18.9067524,2.06008584 17.8778135,1.0944206 16.6559486,1.0944206 Z M3.34405145,0 L16.6559486,0 C18.4565916,0 20,1.4806867 20,3.34763948 L20,11.6523605 C20,13.4549356 18.4565916,15 16.5916399,15 L3.34405145,15 C1.54340836,15 0,13.4549356 0,11.6523605 L0,3.34763948 C0,1.54506438 1.54340836,0 3.34405145,0 Z" id="Shape"></path>
            </g>
        </g>
    </g>
</svg>