<?xml version="1.0" encoding="UTF-8"?>
<svg width="32px" height="32px" viewBox="0 0 32 32" version="1.1" xmlns="http://www.w3.org/2000/svg" xmlns:xlink="http://www.w3.org/1999/xlink">
    <!-- Generator: Sketch 55.1 (78136) - https://sketchapp.com -->
    <title>Group 2</title>
    <desc>Created with Sketch.</desc>
    <g id="Symbols" stroke="none" stroke-width="1" fill="none" fill-rule="evenodd">
        <g id="Footer" transform="translate(-824.000000, -140.000000)">
            <g id="Stacked-Group" transform="translate(825.000000, 141.000000)">
                <g id="Group-2">
                    <path d="M0,15 C0,6.71572834 6.71572834,0 15,0 C23.2842717,0 30,6.71572834 30,15 C30,23.2842717 23.2842717,30 15,30 C6.71572834,30 0,23.2842717 0,15 Z" id="back" stroke="#4A90E2"></path>
                    <path d="M15.8140171,18.9288196 C15.8140171,18.9288196 16.0544397,18.9025976 16.1775829,18.7727668 C16.2903013,18.6538084 16.286392,18.4293226 16.286392,18.4293226 C16.286392,18.4293226 16.2714063,17.3810825 16.7672371,17.2263088 C17.2559008,17.0740933 17.8833449,18.2400126 18.5492306,18.6883447 C19.0522284,19.0273119 19.4340377,18.9531229 19.4340377,18.9531229 L21.213425,18.9288196 C21.213425,18.9288196 22.1438406,18.8725382 21.7027402,18.1543115 C21.6662533,18.0954719 21.4453774,17.6228365 20.3800905,16.6519832 C19.2639827,15.6357211 19.4138396,15.8000882 20.7573389,14.0419356 C21.5756877,12.9713109 21.9027666,12.3176798 21.800473,12.0381917 C21.7033918,11.7708553 21.1013581,11.8418465 21.1013581,11.8418465 L19.0984886,11.8539982 C19.0984886,11.8539982 18.9499348,11.8341718 18.8398226,11.8987674 C18.7323166,11.962084 18.6626006,12.1098225 18.6626006,12.1098225 C18.6626006,12.1098225 18.3459465,12.9380537 17.9230896,13.6428497 C17.0311155,15.129189 16.6747168,15.2078549 16.5287692,15.1157582 C16.1893108,14.9002262 16.2740125,14.251072 16.2740125,13.7899487 C16.2740125,12.3490182 16.4968432,11.7484707 15.8407307,11.5930574 C15.6231125,11.541253 15.4628308,11.5073563 14.9057542,11.5016002 C14.1910022,11.494565 13.5863623,11.5041584 13.2436462,11.6685256 C13.0156031,11.7778905 12.8396842,12.0222027 12.9471902,12.036273 C13.0794552,12.0535412 13.3791689,12.1155786 13.5381475,12.3279127 C13.7433862,12.6022843 13.7362192,13.2175418 13.7362192,13.2175418 C13.7362192,13.2175418 13.85415,14.913657 13.4606129,15.1240725 C13.1908705,15.2686132 12.8207892,14.9737757 12.0252448,13.624942 C11.618025,12.9342164 11.3104927,12.1705808 11.3104927,12.1705808 C11.3104927,12.1705808 11.2512015,12.0279587 11.1449986,11.9512114 C11.0166429,11.8584751 10.8374662,11.8296949 10.8374662,11.8296949 L8.93428411,11.8418465 C8.93428411,11.8418465 8.64825297,11.8495213 8.54335317,11.9716774 C8.45018129,12.0797632 8.5361861,12.304249 8.5361861,12.304249 C8.5361861,12.304249 10.0262845,15.7265387 11.7138031,17.4514342 C13.2612381,19.0324284 15.0178211,18.9288196 15.0178211,18.9288196 L15.8140171,18.9288196 Z" id="Shape" fill="#4A90E2"></path>
                </g>
            </g>
        </g>
    </g>
</svg>