<?xml version="1.0" encoding="UTF-8"?>
<svg width="25px" height="24px" viewBox="0 0 25 24" version="1.1" xmlns="http://www.w3.org/2000/svg" xmlns:xlink="http://www.w3.org/1999/xlink">
    <!-- Generator: Sketch 55 (78076) - https://sketchapp.com -->
    <title>Group 19</title>
    <desc>Created with Sketch.</desc>
    <g id="Web-1280" stroke="none" stroke-width="1" fill="none" fill-rule="evenodd">
        <g id="main" transform="translate(-267.000000, -1211.000000)" fill="#1a1a1a" fill-rule="nonzero">
            <g id="Group-21" transform="translate(105.000000, 1155.000000)">
                <g id="Group-19" transform="translate(162.000000, 56.000000)">
                    <path d="M16.9648558,0.00043118499 C16.7525179,-0.00343384829 16.5327669,0.0186353118 16.3080484,0.0686440748 L3.07888186,3.34906396 C2.40864969,3.52865386 1.64435682,3.68616164 1.01337482,4.23583165 C0.382392947,4.78550141 -1.31450406e-13,5.70043585 -1.31450406e-13,7.09870584 L-1.31450406e-13,21.915889 C-1.31450406e-13,22.9327891 0.835182734,23.7679724 1.85208331,23.7679724 L23.0187497,23.7679724 C24.0356498,23.7679724 24.870833,22.9327891 24.870833,21.915889 L24.870833,7.35967178 C24.870833,6.34277195 24.0356498,5.50707174 23.0187497,5.50707174 L19.5791664,5.50707174 L19.5791664,2.92893447 C19.5791672,1.30895953 18.4512199,0.0274860476 16.9648558,0.00043118499 Z M16.9937946,1.06289862 C17.9756462,1.11421929 18.5100331,2.07701715 18.5208331,2.92893447 L18.5208331,5.51017239 L9.79009994,5.51017239 C9.08420008,5.51017239 9.08420008,6.56902244 9.79009994,6.56902244 L23.0187497,6.56540506 C23.4676328,6.56540506 23.8124997,6.91026509 23.8124997,7.35915505 L23.8124997,21.915889 C23.8124997,22.364769 23.4676328,22.709639 23.0187497,22.709639 L1.85208331,22.709639 C1.40319951,22.709639 1.05833332,22.364769 1.05833332,21.915889 L1.05833332,7.0981891 C1.05833332,5.87816918 1.33700873,5.35675878 1.70842282,5.03319876 C2.07841583,4.71088891 2.65553954,4.55764409 3.34553212,4.37277417 L16.5457598,1.09958889 C16.7040629,1.06673137 16.85353,1.05556709 16.9937946,1.06289862 Z" id="Shape"></path>
                    <path d="M20.372266,12.7876593 C19.355656,12.7876593 18.520703,13.6226093 18.520703,14.6392193 C18.520703,15.6558293 19.355656,16.4907793 20.372266,16.4907793 C21.388875,16.4907793 22.225781,15.6558293 22.225781,14.6392193 C22.225781,13.6226093 21.388875,12.7876593 20.372266,12.7876593 Z M20.372266,13.8462493 C20.816909,13.8462493 21.167187,14.1945693 21.167188,14.6392193 C21.167188,15.0838593 20.816909,15.4321893 20.372266,15.4321893 C19.927622,15.4321893 19.579297,15.0838593 19.579297,14.6392193 C19.579297,14.1945693 19.927622,13.8462493 20.372266,13.8462493 Z" id="Shape"></path>
                </g>
            </g>
        </g>
    </g>
</svg>