<?xml version="1.0" encoding="UTF-8"?>
<svg width="72px" height="6px" viewBox="0 0 72 6" version="1.1" xmlns="http://www.w3.org/2000/svg" xmlns:xlink="http://www.w3.org/1999/xlink">
    <!-- Generator: Sketch 55.1 (78136) - https://sketchapp.com -->
    <title>Fill 1</title>
    <desc>Created with Sketch.</desc>
    <g id="Symbols" stroke="none" stroke-width="1" fill="none" fill-rule="evenodd">
        <g id="Promo-Card" transform="translate(-139.000000, -231.000000)" fill="#E3775B">
            <g id="Group-3" transform="translate(139.000000, 231.000000)">
                <path d="M0,5.57142857 C0.889921428,5.57142857 1.74742228,5.28819966 2.47946958,4.75260334 L5.5462685,2.51116258 C6.53486126,1.78840621 7.86410504,1.78840621 8.85316766,2.51116258 L11.9199666,4.75260334 C12.6524838,5.28819966 13.5095147,5.57142857 14.3994362,5.57142857 L14.399906,5.57142857 C15.2898275,5.57142857 16.1473283,5.28819966 16.8798455,4.75260334 L19.9461745,2.51116258 C20.9352372,1.78840621 22.2644809,1.78840621 23.2530737,2.51116258 L26.3203425,4.75260334 C27.0519199,5.28819966 27.9094208,5.57142857 28.7993422,5.57142857 L28.7998121,5.57142857 L28.8002819,5.57142857 C29.6897335,5.57142857 30.5477042,5.28819966 31.2792816,4.75260334 L34.3460806,2.51116258 C35.3351432,1.78840621 36.6639171,1.78840621 37.6534496,2.51116258 L40.7197786,4.75260334 C41.4522958,5.28819966 42.3097967,5.57142857 43.1992482,5.57142857 L43.1997181,5.57142857 C44.0896395,5.57142857 44.9471404,5.28819966 45.6796575,4.75260334 L48.7459866,2.51116258 C49.7350492,1.78840621 51.064293,1.78840621 52.0528857,2.51116258 L55.1201545,4.75260334 C55.8522018,5.28819966 56.7092328,5.57142857 57.5991542,5.57142857 L57.5996241,5.57142857 L57.600094,5.57142857 C58.4895455,5.57142857 59.3475162,5.28819966 60.0795635,4.75260334 L63.1463625,2.51116258 C64.1349552,1.78840621 65.464199,1.78840621 66.4532616,2.51116258 L69.5195907,4.75260334 C70.2525777,5.28819966 71.1100786,5.57142857 72,5.57142857 L72,4.02934919 C71.4070323,4.02934919 70.8347386,3.84069584 70.3465504,3.48379754 L67.2792816,1.24185903 C65.7963925,0.15772446 63.8032316,0.157226694 62.3194028,1.24185903 L59.2526038,3.48379754 C58.7644157,3.84069584 58.1930617,4.02934919 57.5996241,4.02934919 C57.0061865,4.02934919 56.4348325,3.84069584 55.9461745,3.48379754 L52.8798455,1.24185903 C51.3964865,0.15772446 49.4033256,0.157226694 47.9194967,1.24185903 L44.8526978,3.48379754 C44.3645096,3.84069584 43.7926858,4.02934919 43.1997181,4.02934919 C42.6067504,4.02934919 42.0349265,3.84069584 41.5467384,3.48379754 L38.4799394,1.24185903 C36.9961106,0.15772446 35.0029497,0.157226694 33.5195907,1.24185903 L30.4532616,3.48379754 C29.9646036,3.84069584 29.3932496,4.02934919 28.7998121,4.02934919 C28.2063745,4.02934919 27.6345506,3.84069584 27.1463625,3.48379754 L24.0800334,1.24185903 C22.5966744,0.15772446 20.6035135,0.157226694 19.1192148,1.24185903 L16.0528857,3.48379754 C15.5646976,3.84069584 14.9928737,4.02934919 14.3994362,4.02934919 C13.8064685,4.02934919 13.2351145,3.84069584 12.7464564,3.48379754 L9.68012739,1.24185903 C8.19629852,0.15772446 6.20313764,0.157226694 4.71977864,1.24185903 L1.65344958,3.48379754 C1.16479156,3.84069584 0.59296771,4.02934919 0,4.02934919" id="Fill-1"></path>
            </g>
        </g>
    </g>
</svg>